<svg width="63" height="55" viewBox="0 0 63 55" fill="none" xmlns="http://www.w3.org/2000/svg">
<rect x="23" y="11" width="40" height="40" rx="20" fill="#C0F8FF" fill-opacity="0.9"/>
<path d="M43.1964 3.11404C41.4096 1.1059 38.9328 0 36.2221 0C33.1964 0 30.5738 1.43064 28.6375 4.13712C28.4923 4.34004 28.3565 4.54296 28.2292 4.74384C28.102 4.54285 27.9662 4.34004 27.821 4.13712C25.8846 1.43064 23.2619 0 20.2363 0C17.5256 0 15.0487 1.1059 13.2619 3.11393C11.5664 5.01959 10.6325 7.5672 10.6325 10.2874C10.6325 13.2436 11.7796 15.9713 14.2423 18.8721C16.391 21.403 19.4731 24.0044 23.0421 27.0167C24.3609 28.1299 25.7248 29.2809 27.174 30.537C27.4767 30.7993 27.8529 30.9306 28.2291 30.9306C28.6052 30.9306 28.9813 30.7993 29.2842 30.537C30.7332 29.2813 32.0968 28.1302 33.4156 27.0172C35.7076 25.0826 37.6871 23.4119 39.4049 21.7913C42.7399 18.6447 45.8259 15.0733 45.8259 10.2875C45.8259 7.5672 44.8921 5.0197 43.1964 3.11404ZM37.1938 19.4477C35.541 21.0071 33.5931 22.6512 31.3375 24.5549C30.3341 25.4017 29.305 26.2703 28.2292 27.1929C27.1531 26.2705 26.1237 25.4016 25.1203 24.5546C18.095 18.6251 13.8545 15.046 13.8545 10.2875C13.8543 6.25955 16.5978 3.22211 20.2362 3.22211C22.18 3.22211 23.8331 4.13712 25.1495 5.94169C26.23 7.42261 26.6735 8.95787 26.6765 8.96819C26.8699 9.6661 27.5049 10.1493 28.2291 10.1493C28.9532 10.1493 29.5883 9.6661 29.7816 8.96819C29.7975 8.91072 31.4284 3.22211 36.2221 3.22211C39.8603 3.22211 42.604 6.25966 42.604 10.2875C42.604 13.2061 41.0871 15.7743 37.1938 19.4477Z" fill="#333335"/>
<path d="M50.1547 32.4464C48.8183 32.4464 47.5291 33.0074 46.6179 33.9856L41.8831 39.0686C41.2711 37.1011 39.4333 35.6684 37.2671 35.6684H29.8249C28.783 35.6684 27.7783 35.2893 26.9961 34.6009C22.7891 30.8988 16.4657 30.8662 12.2188 34.4986C11.343 33.2586 9.89985 32.4465 8.26962 32.4465H1.611C0.721335 32.4465 0 33.1677 0 34.0575V53.3891C0 54.2787 0.721227 55.0001 1.611 55.0001H8.26962C9.71638 55.0001 11.0157 54.3601 11.9022 53.3495L12.8562 53.6176C16.1194 54.5349 19.4927 54.9999 22.8824 54.9999H37.267C40.7975 54.9999 44.17 53.3136 46.2883 50.4892L54.0226 40.1771C54.0227 40.1769 54.0228 40.1766 54.023 40.1764C54.6541 39.3349 54.9876 38.3331 54.9876 37.2792C54.9876 34.6144 52.8195 32.4464 50.1547 32.4464ZM9.88062 50.1669C9.88062 51.0552 9.158 51.7779 8.26962 51.7779H3.22189V35.6683H8.26962C9.15789 35.6683 9.88062 36.3909 9.88062 37.2793V50.1669ZM51.4452 38.2436C51.4452 38.2437 51.4451 38.2437 51.445 38.2438L43.7109 48.5562C42.1977 50.5736 39.7888 51.7781 37.267 51.7781H22.8827C19.7878 51.7781 16.7078 51.3534 13.7284 50.516L13.0983 50.3388C13.1004 50.2817 13.1027 50.2246 13.1027 50.1671V38.0075L14.2254 37.0195C17.259 34.3501 21.8342 34.3499 24.868 37.0195C26.2388 38.2258 27.9991 38.8901 29.8251 38.8901H37.2673C38.1556 38.8901 38.8783 39.6128 38.8783 40.5011C38.8783 41.3893 38.1557 42.1121 37.2673 42.1121H25.8178C24.9281 42.1121 24.2068 42.8333 24.2068 43.7231C24.2068 44.6128 24.928 45.3341 25.8178 45.3341H38.3468C39.6832 45.3341 40.9721 44.7732 41.8832 43.7952L48.9755 36.1816C49.2839 35.8506 49.7027 35.6683 50.1547 35.6683C51.043 35.6683 51.7657 36.3909 51.7657 37.2793C51.7657 37.6305 51.6549 37.964 51.4452 38.2436Z" fill="#333335"/>
</svg>
