<svg width="36" height="35" viewBox="0 0 36 35" fill="none" xmlns="http://www.w3.org/2000/svg">
<rect x="0.90918" y="0.5" width="34" height="34" rx="17" stroke="white" stroke-opacity="0.8"/>
<path d="M22.4492 16.79L16.7892 11.14C16.6962 11.0463 16.5856 10.9719 16.4637 10.9211C16.3419 10.8704 16.2112 10.8442 16.0792 10.8442C15.9471 10.8442 15.8164 10.8704 15.6946 10.9211C15.5727 10.9719 15.4621 11.0463 15.3692 11.14C15.1829 11.3274 15.0784 11.5809 15.0784 11.845C15.0784 12.1092 15.1829 12.3627 15.3692 12.55L20.3192 17.55L15.3692 22.5C15.1829 22.6874 15.0784 22.9409 15.0784 23.205C15.0784 23.4692 15.1829 23.7227 15.3692 23.91C15.4618 24.0045 15.5722 24.0797 15.6941 24.1312C15.816 24.1827 15.9469 24.2095 16.0792 24.21C16.2115 24.2095 16.3424 24.1827 16.4642 24.1312C16.5861 24.0797 16.6965 24.0045 16.7892 23.91L22.4492 18.26C22.5507 18.1664 22.6317 18.0527 22.6871 17.9262C22.7425 17.7997 22.7711 17.6631 22.7711 17.525C22.7711 17.3869 22.7425 17.2503 22.6871 17.1238C22.6317 16.9973 22.5507 16.8837 22.4492 16.79Z" fill="white" fill-opacity="0.8"/>
</svg>
