<svg width="35" height="35" viewBox="0 0 35 35" fill="none" xmlns="http://www.w3.org/2000/svg">
<rect x="-0.5" y="0.5" width="34" height="34" rx="17" transform="matrix(-1 0 0 1 34 0)" stroke="#333335"/>
<path d="M13.9598 16.29L19.6198 10.64C19.7127 10.5463 19.8233 10.4719 19.9452 10.4211C20.0671 10.3704 20.1978 10.3442 20.3298 10.3442C20.4618 10.3442 20.5925 10.3704 20.7144 10.4211C20.8362 10.4719 20.9468 10.5463 21.0398 10.64C21.226 10.8274 21.3306 11.0809 21.3306 11.345C21.3306 11.6092 21.226 11.8627 21.0398 12.05L16.0898 17.05L21.0398 22C21.226 22.1874 21.3306 22.4409 21.3306 22.705C21.3306 22.9692 21.226 23.2227 21.0398 23.41C20.9472 23.5045 20.8367 23.5797 20.7148 23.6312C20.593 23.6827 20.4621 23.7095 20.3298 23.71C20.1975 23.7095 20.0666 23.6827 19.9447 23.6312C19.8228 23.5797 19.7124 23.5045 19.6198 23.41L13.9598 17.76C13.8583 17.6664 13.7773 17.5527 13.7219 17.4262C13.6664 17.2997 13.6378 17.1631 13.6378 17.025C13.6378 16.8869 13.6664 16.7503 13.7219 16.6238C13.7773 16.4973 13.8583 16.3837 13.9598 16.29Z" fill="#333335"/>
</svg>
