<svg width="36" height="35" viewBox="0 0 36 35" fill="none" xmlns="http://www.w3.org/2000/svg">
<rect x="-0.5" y="0.5" width="34" height="34" rx="17" transform="matrix(-1 0 0 1 34.4092 0)" stroke="white" stroke-opacity="0.8"/>
<path d="M14.3692 16.79L20.0292 11.14C20.1222 11.0463 20.2328 10.9719 20.3546 10.9211C20.4765 10.8704 20.6072 10.8442 20.7392 10.8442C20.8712 10.8442 21.0019 10.8704 21.1238 10.9211C21.2456 10.9719 21.3562 11.0463 21.4492 11.14C21.6354 11.3274 21.74 11.5809 21.74 11.845C21.74 12.1092 21.6354 12.3627 21.4492 12.55L16.4992 17.55L21.4492 22.5C21.6354 22.6874 21.74 22.9409 21.74 23.205C21.74 23.4692 21.6354 23.7227 21.4492 23.91C21.3566 24.0045 21.2461 24.0797 21.1243 24.1312C21.0024 24.1827 20.8715 24.2095 20.7392 24.21C20.6069 24.2095 20.476 24.1827 20.3541 24.1312C20.2323 24.0797 20.1218 24.0045 20.0292 23.91L14.3692 18.26C14.2677 18.1664 14.1867 18.0527 14.1313 17.9262C14.0759 17.7997 14.0473 17.6631 14.0473 17.525C14.0473 17.3869 14.0759 17.2503 14.1313 17.1238C14.1867 16.9973 14.2677 16.8837 14.3692 16.79Z" fill="white" fill-opacity="0.8"/>
</svg>
