<svg width="36" height="35" viewBox="0 0 36 35" fill="none" xmlns="http://www.w3.org/2000/svg">
<rect x="0.90918" y="0.5" width="34" height="34" rx="17" stroke="white" stroke-opacity="0.8"/>
<path d="M21.4492 16.79L15.7892 11.14C15.6962 11.0463 15.5856 10.9719 15.4637 10.9211C15.3419 10.8704 15.2112 10.8442 15.0792 10.8442C14.9471 10.8442 14.8164 10.8704 14.6946 10.9211C14.5727 10.9719 14.4621 11.0463 14.3692 11.14C14.1829 11.3274 14.0784 11.5809 14.0784 11.845C14.0784 12.1092 14.1829 12.3627 14.3692 12.55L19.3192 17.55L14.3692 22.5C14.1829 22.6874 14.0784 22.9409 14.0784 23.205C14.0784 23.4692 14.1829 23.7227 14.3692 23.91C14.4618 24.0045 14.5722 24.0797 14.6941 24.1312C14.816 24.1827 14.9469 24.2095 15.0792 24.21C15.2115 24.2095 15.3424 24.1827 15.4642 24.1312C15.5861 24.0797 15.6965 24.0045 15.7892 23.91L21.4492 18.26C21.5507 18.1664 21.6317 18.0527 21.6871 17.9262C21.7425 17.7997 21.7711 17.6631 21.7711 17.525C21.7711 17.3869 21.7425 17.2503 21.6871 17.1238C21.6317 16.9973 21.5507 16.8837 21.4492 16.79Z" fill="white" fill-opacity="0.8"/>
</svg>
