<svg width="35" height="35" viewBox="0 0 35 35" fill="none" xmlns="http://www.w3.org/2000/svg">
<rect x="0.5" y="0.5" width="34" height="34" rx="17" stroke="#333335"/>
<path d="M21.0402 16.79L15.3802 11.14C15.2873 11.0463 15.1767 10.9719 15.0548 10.9211C14.9329 10.8704 14.8022 10.8442 14.6702 10.8442C14.5382 10.8442 14.4075 10.8704 14.2856 10.9211C14.1638 10.9719 14.0532 11.0463 13.9602 11.14C13.774 11.3274 13.6694 11.5809 13.6694 11.845C13.6694 12.1092 13.774 12.3627 13.9602 12.55L18.9102 17.55L13.9602 22.5C13.774 22.6874 13.6694 22.9409 13.6694 23.205C13.6694 23.4692 13.774 23.7227 13.9602 23.91C14.0528 24.0045 14.1633 24.0797 14.2852 24.1312C14.407 24.1827 14.5379 24.2095 14.6702 24.21C14.8025 24.2095 14.9334 24.1827 15.0553 24.1312C15.1772 24.0797 15.2876 24.0045 15.3802 23.91L21.0402 18.26C21.1417 18.1664 21.2227 18.0527 21.2781 17.9262C21.3336 17.7997 21.3622 17.6631 21.3622 17.525C21.3622 17.3869 21.3336 17.2503 21.2781 17.1238C21.2227 16.9973 21.1417 16.8837 21.0402 16.79Z" fill="#333335"/>
</svg>
