<svg width="36" height="35" viewBox="0 0 36 35" fill="none" xmlns="http://www.w3.org/2000/svg">
<rect x="-0.5" y="0.5" width="34" height="34" rx="17" transform="matrix(-1 0 0 1 34.4092 0)" stroke="white" stroke-opacity="0.8"/>
<path d="M13.3692 16.79L19.0292 11.14C19.1222 11.0463 19.2328 10.9719 19.3546 10.9211C19.4765 10.8704 19.6072 10.8442 19.7392 10.8442C19.8712 10.8442 20.0019 10.8704 20.1238 10.9211C20.2456 10.9719 20.3562 11.0463 20.4492 11.14C20.6354 11.3274 20.74 11.5809 20.74 11.845C20.74 12.1092 20.6354 12.3627 20.4492 12.55L15.4992 17.55L20.4492 22.5C20.6354 22.6874 20.74 22.9409 20.74 23.205C20.74 23.4692 20.6354 23.7227 20.4492 23.91C20.3566 24.0045 20.2461 24.0797 20.1243 24.1312C20.0024 24.1827 19.8715 24.2095 19.7392 24.21C19.6069 24.2095 19.476 24.1827 19.3541 24.1312C19.2323 24.0797 19.1218 24.0045 19.0292 23.91L13.3692 18.26C13.2677 18.1664 13.1867 18.0527 13.1313 17.9262C13.0759 17.7997 13.0473 17.6631 13.0473 17.525C13.0473 17.3869 13.0759 17.2503 13.1313 17.1238C13.1867 16.9973 13.2677 16.8837 13.3692 16.79Z" fill="white" fill-opacity="0.8"/>
</svg>
