<svg width="67" height="55" viewBox="0 0 67 55" fill="none" xmlns="http://www.w3.org/2000/svg">
<rect y="18" width="37" height="37" rx="18.5" fill="#C0F8FF" fill-opacity="0.9"/>
<path d="M56.4186 24.3072C56.3128 24.3072 56.2074 24.3093 56.1022 24.3124L51.24 1.38767C51.0684 0.578624 50.3541 0 49.5271 0H44.1163C43.1493 0 42.3653 0.783949 42.3653 1.75093C42.3653 2.71791 43.1493 3.50185 44.1163 3.50185H48.1085L50.2251 13.4812H28.7728L26.4884 8.69627H28.2421C29.2091 8.69627 29.9931 7.91232 29.9931 6.94535C29.9931 5.97837 29.2091 5.19442 28.2421 5.19442H21.4517C20.4847 5.19442 19.7008 5.97837 19.7008 6.94535C19.7008 7.91232 20.4847 8.69627 21.4517 8.69627H22.6079L25.7081 15.1899L20.586 24.8272C19.5664 24.4902 18.4774 24.3072 17.3463 24.3072C11.6414 24.3072 7 28.9487 7 34.6537C7 40.3586 11.6414 45 17.3463 45C22.4546 45 26.7095 41.2786 27.5437 36.4046H35.1897V40.3282C35.1897 41.2952 35.9736 42.0791 36.9406 42.0791H40.3883C41.3553 42.0791 42.1392 41.2952 42.1392 40.3282C42.1392 39.3612 41.3553 38.5772 40.3883 38.5772H38.6916V34.6537C38.6916 30.6683 39.9777 26.9007 42.4109 23.758C44.6368 20.8831 47.6866 18.7591 51.1137 17.67L52.6705 25.01C48.813 26.5146 46.0724 30.2699 46.0724 34.6535C46.0724 40.3585 50.7138 44.9999 56.4188 44.9999C62.1237 44.9999 66.765 40.3586 66.765 34.6537C66.765 28.9487 62.1236 24.3072 56.4186 24.3072ZM17.3463 41.4981C13.5723 41.4981 10.5019 38.4277 10.5019 34.6537C10.5019 30.8796 13.5723 27.809 17.3463 27.809C17.8826 27.809 18.4039 27.873 18.9049 27.9902L15.8002 33.8319C15.5117 34.3746 15.529 35.0288 15.8456 35.5556C16.1621 36.0824 16.7318 36.4046 17.3463 36.4046H23.9629C23.1872 39.3331 20.5153 41.4981 17.3463 41.4981ZM20.2598 32.9027L21.9956 29.6367C22.9324 30.5054 23.6262 31.6319 23.9629 32.9027H20.2598ZM27.5437 32.9027C27.0985 30.3018 25.6794 28.0293 23.6759 26.4752L27.5847 19.1207L34.1645 32.9027H27.5437ZM39.642 21.6143C37.9818 23.7583 36.7683 26.1453 36.0312 28.6845L30.4448 16.9831H44.5846C42.7156 18.2455 41.0421 19.8058 39.642 21.6143ZM56.4186 41.4981C52.6446 41.4981 49.5742 38.4277 49.5742 34.6537C49.5742 31.9578 51.1413 29.6217 53.4119 28.5065L54.7928 35.0169C54.9675 35.8404 55.6945 36.4049 56.5039 36.4049C56.6242 36.4049 56.7464 36.3926 56.8689 36.3665C57.8148 36.1659 58.419 35.2364 58.2185 34.2904L56.8469 27.8239C60.4221 28.0459 63.263 31.0236 63.263 34.6537C63.2631 38.4277 60.1927 41.4981 56.4186 41.4981Z" fill="#333335"/>
</svg>
