<svg width="60" height="51" viewBox="0 0 60 51" fill="none" xmlns="http://www.w3.org/2000/svg">
<rect x="12" width="48" height="48" rx="24" fill="#C0F8FF" fill-opacity="0.9"/>
<path d="M41.92 14.0292H37.676C34.952 9.66272 30.1979 7 24.9949 7C19.7919 7 15.0377 9.66272 12.3138 14.0292H9.41645V10.6421C9.41645 9.48929 8.48806 8.56091 7.33524 8.56091C6.18241 8.56091 5.25403 9.48929 5.25403 10.6421V14.5393C2.19343 15.6819 0 18.6405 0 22.099V42.7682C0 47.2163 3.62171 50.838 8.06978 50.838H41.9302C46.3783 50.838 50 47.2163 50 42.7682V22.099C49.9898 17.6509 46.3681 14.0292 41.92 14.0292ZM45.8274 42.758C45.8274 44.9106 44.0828 46.6552 41.9302 46.6552H8.06978C5.91716 46.6552 4.17262 44.9106 4.17262 42.758V22.099C4.17262 19.9463 5.91716 18.2018 8.06978 18.2018H13.5279C14.3134 18.2018 15.0275 17.7631 15.3846 17.0694C17.2414 13.4273 20.9243 11.1624 24.9949 11.1624C29.0655 11.1624 32.7484 13.4171 34.6052 17.0592C34.9623 17.7529 35.6764 18.1916 36.4619 18.1916H41.92C44.0726 18.1916 45.8172 19.9361 45.8172 22.0888V42.758H45.8274Z" fill="#333335"/>
<path d="M24.9949 17.5691C17.8841 17.5691 12.0894 23.3536 12.0894 30.4746C12.0894 37.5854 17.8739 43.3802 24.9949 43.3802C32.1057 43.3802 37.9004 37.5956 37.9004 30.4746C37.9004 23.3638 32.1057 17.5691 24.9949 17.5691ZM24.9949 39.2075C20.1795 39.2075 16.262 35.29 16.262 30.4746C16.262 25.6593 20.1795 21.7417 24.9949 21.7417C29.8102 21.7417 33.7278 25.6593 33.7278 30.4746C33.7278 35.29 29.8102 39.2075 24.9949 39.2075Z" fill="#333335"/>
</svg>
