<svg width="57" height="53" viewBox="0 0 57 53" fill="none" xmlns="http://www.w3.org/2000/svg">
<rect y="18" width="35" height="35" rx="17.5" fill="#C0F8FF" fill-opacity="0.9"/>
<path d="M55.5352 22.7915H52.0545L51.5568 20.4592H51.9106C54.7169 20.4592 57 18.1762 57 15.3698C57 12.5635 54.717 10.2805 51.9106 10.2805H49.385L48.9415 8.20205C48.7973 7.52607 48.2001 7.04287 47.5089 7.04287H40.5551V1.46484C40.5551 0.655859 39.8992 0 39.0902 0H24.9098C24.1008 0 23.4449 0.655859 23.4449 1.46484V7.04287H16.491C15.7998 7.04287 15.2026 7.52607 15.0584 8.20205L14.6149 10.2805H12.0894C9.28301 10.2805 7 12.5636 7 15.3698C7 18.1761 9.28301 20.4592 12.0894 20.4592H12.4432L11.9455 22.7915H8.46484C7.65586 22.7915 7 23.4474 7 24.2563V41.9316C7 42.7406 7.65586 43.3965 8.46484 43.3965H10.7415V48.5352C10.7415 49.3441 11.3974 50 12.2063 50H20.8187C21.6277 50 22.2836 49.3441 22.2836 48.5352V43.3965H41.7165V48.5352C41.7165 49.3441 42.3724 50 43.1813 50H51.7937C52.6027 50 53.2586 49.3441 53.2586 48.5352V43.3965H55.5352C56.3441 43.3965 57 42.7406 57 41.9316V24.2563C57 23.4474 56.3441 22.7915 55.5352 22.7915ZM51.9106 13.2102C53.1015 13.2102 54.0703 14.179 54.0703 15.3698C54.0703 16.5606 53.1016 17.5295 51.9106 17.5295H50.9317L50.0102 13.2102H51.9106ZM26.3746 2.92969H37.6255V7.04287H26.3746V2.92969ZM12.0894 17.5295C10.8985 17.5295 9.92969 16.5607 9.92969 15.3698C9.92969 14.1789 10.8984 13.2102 12.0894 13.2102H13.9899L13.0684 17.5295H12.0894ZM17.6764 9.97256H46.3237L49.0589 22.7916H14.9412L17.6764 9.97256ZM19.3538 47.0703H13.6712V43.3965H19.3539V47.0703H19.3538ZM50.3289 47.0703H44.6462V43.3965H50.3289V47.0703ZM54.0703 40.4668H9.92969V25.7212H54.0703V40.4668Z" fill="#333335"/>
<path d="M17.247 37.5412C19.7481 37.5412 21.783 35.5462 21.783 33.094C21.783 30.6417 19.7482 28.6466 17.247 28.6466C14.7458 28.6466 12.7112 30.6416 12.7112 33.094C12.7112 35.5462 14.7459 37.5412 17.247 37.5412ZM17.247 31.5763C18.1327 31.5763 18.8533 32.2572 18.8533 33.094C18.8533 33.9308 18.1328 34.6115 17.247 34.6115C16.3614 34.6115 15.6409 33.9308 15.6409 33.094C15.6409 32.2572 16.3614 31.5763 17.247 31.5763Z" fill="#333335"/>
<path d="M46.753 37.5412C49.2541 37.5412 51.2888 35.5462 51.2888 33.094C51.2888 30.6417 49.2541 28.6466 46.753 28.6466C44.2519 28.6466 42.217 30.6416 42.217 33.094C42.217 35.5462 44.2518 37.5412 46.753 37.5412ZM46.753 31.5763C47.6386 31.5763 48.3591 32.2572 48.3591 33.094C48.3591 33.9308 47.6386 34.6115 46.753 34.6115C45.8673 34.6115 45.1467 33.9308 45.1467 33.094C45.1467 32.2572 45.8672 31.5763 46.753 31.5763Z" fill="#333335"/>
</svg>
