<svg width="25" height="25" viewBox="0 0 25 25" fill="none" xmlns="http://www.w3.org/2000/svg">
<path d="M18.7827 7.548C18.6897 7.45427 18.5791 7.37987 18.4573 7.3291C18.3354 7.27834 18.2047 7.2522 18.0727 7.2522C17.9407 7.2522 17.81 7.27834 17.6881 7.3291C17.5663 7.37987 17.4557 7.45427 17.3627 7.548L9.9127 15.008L6.7827 11.868C6.68618 11.7748 6.57224 11.7014 6.44739 11.6522C6.32253 11.603 6.18921 11.5789 6.05503 11.5812C5.92085 11.5835 5.78844 11.6123 5.66536 11.6658C5.54228 11.7193 5.43094 11.7965 5.3377 11.893C5.24447 11.9895 5.17115 12.1035 5.12195 12.2283C5.07274 12.3532 5.04861 12.4865 5.05093 12.6207C5.05326 12.7549 5.08198 12.8873 5.13548 13.0103C5.18897 13.1334 5.26618 13.2448 5.3627 13.338L9.2027 17.178C9.29567 17.2717 9.40627 17.3461 9.52813 17.3969C9.64999 17.4477 9.78069 17.4738 9.9127 17.4738C10.0447 17.4738 10.1754 17.4477 10.2973 17.3969C10.4191 17.3461 10.5297 17.2717 10.6227 17.178L18.7827 9.018C18.8842 8.92435 18.9652 8.8107 19.0206 8.6842C19.076 8.5577 19.1046 8.4211 19.1046 8.283C19.1046 8.14489 19.076 8.00829 19.0206 7.88179C18.9652 7.75529 18.8842 7.64164 18.7827 7.548Z" fill="#60CA77"/>
</svg>
