<svg width="34" height="34" viewBox="0 0 34 34" fill="none" xmlns="http://www.w3.org/2000/svg">
<rect x="0.5" y="0.5" width="33" height="33" rx="16.5" stroke="white"/>
<path d="M18.5244 16.9991L22.8873 12.7127C23.0784 12.5245 23.1857 12.2693 23.1857 12.0033C23.1857 11.7372 23.0784 11.482 22.8873 11.2938C22.6962 11.1057 22.4371 11 22.1669 11C21.8967 11 21.6376 11.1057 21.4465 11.2938L17.0937 15.5903L12.7409 11.2938C12.5499 11.1057 12.2907 11 12.0205 11C11.7503 11 11.4912 11.1057 11.3001 11.2938C11.1091 11.482 11.0017 11.7372 11.0017 12.0033C11.0017 12.2693 11.1091 12.5245 11.3001 12.7127L15.6631 16.9991L11.3001 21.2856C11.205 21.3785 11.1295 21.489 11.078 21.6108C11.0265 21.7325 11 21.8631 11 21.995C11 22.1269 11.0265 22.2575 11.078 22.3793C11.1295 22.501 11.205 22.6116 11.3001 22.7044C11.3945 22.7981 11.5067 22.8724 11.6303 22.9232C11.754 22.9739 11.8866 23 12.0205 23C12.1545 23 12.2871 22.9739 12.4107 22.9232C12.5344 22.8724 12.6466 22.7981 12.7409 22.7044L17.0937 18.408L21.4465 22.7044C21.5408 22.7981 21.6531 22.8724 21.7767 22.9232C21.9004 22.9739 22.033 23 22.1669 23C22.3009 23 22.4335 22.9739 22.5571 22.9232C22.6808 22.8724 22.793 22.7981 22.8873 22.7044C22.9824 22.6116 23.0579 22.501 23.1094 22.3793C23.1609 22.2575 23.1874 22.1269 23.1874 21.995C23.1874 21.8631 23.1609 21.7325 23.1094 21.6108C23.0579 21.489 22.9824 21.3785 22.8873 21.2856L18.5244 16.9991Z" fill="white"/>
</svg>
