<svg width="59" height="60" viewBox="0 0 59 60" fill="none" xmlns="http://www.w3.org/2000/svg">
<rect x="11" width="48" height="48" rx="24" fill="#C0F8FF" fill-opacity="0.9"/>
<path d="M48.3399 47.314C48.2237 46.9375 47.9607 46.6238 47.6103 46.4436L42.9536 44.0482V30.0922C42.9536 29.2832 42.2977 28.6273 41.4887 28.6273H38.5718V23.3262C38.5718 22.5172 37.9159 21.8614 37.107 21.8614H29.2882V11.4648C29.2882 10.6559 28.6323 10 27.8233 10H20.5819C19.7729 10 19.117 10.6559 19.117 11.4648V21.8614H11.2983C10.4893 21.8614 9.83341 22.5172 9.83341 23.3262V28.6272H6.91641C6.10742 28.6272 5.45156 29.2831 5.45156 30.0921V44.0481L0.794799 46.4435C0.444407 46.6237 0.181515 46.9375 0.0652059 47.3139C-0.0510055 47.6903 -0.0107709 48.0977 0.177023 48.4441L6.02519 59.2332C6.28134 59.7057 6.77568 60 7.31309 60H41.0921C41.6295 60 42.1238 59.7057 42.38 59.2332L48.2282 48.4441C48.4159 48.0979 48.4561 47.6905 48.3399 47.314ZM26.3585 12.9297V15.8828H22.0467V12.9297H26.3585ZM22.0467 18.8125H26.3585V21.8615H22.0467V18.8125ZM12.763 24.7911H35.6421V28.6272H12.763V24.7911ZM8.38126 31.557H40.024V42.5411L24.8727 34.7472C24.4521 34.5308 23.9532 34.5308 23.5326 34.7472L8.38126 42.5411V31.557ZM3.466 48.3641L22.7378 38.4506V57.0705H8.18526L3.466 48.3641ZM40.22 57.0705H25.6675V38.4506L44.9392 48.3641L40.22 57.0705Z" fill="#333335"/>
</svg>
