<svg width="48" height="55" viewBox="0 0 48 55" fill="none" xmlns="http://www.w3.org/2000/svg">
<rect x="13.1154" y="21.1538" width="33.8462" height="33.8462" rx="16.9231" fill="#C0F8FF" fill-opacity="0.9"/>
<path d="M41.987 24.1246C44.4128 22.1383 45.9639 19.1213 45.9639 15.7487C45.9639 9.78124 41.1089 4.92621 35.1413 4.92621C34.1668 4.92621 33.2055 5.0583 32.2743 5.3151C30.1425 2.89145 27.0204 1.35927 23.5466 1.35927C20.073 1.35927 16.9508 2.89145 14.819 5.31483C13.8879 5.05802 12.927 4.92612 11.9519 4.92612C11.9057 4.92612 11.8598 4.92732 11.8136 4.92787C11.3266 2.13253 8.88435 0 5.95178 0C2.67006 9.19791e-05 0 2.67006 0 5.95187C0 7.84747 0.890909 9.59369 2.37738 10.7082C1.58121 12.2144 1.12941 13.9297 1.12941 15.7487C1.12941 19.1212 2.68036 22.1382 5.10622 24.1245C1.95345 26.3445 0 29.9994 0 33.9062V40.928C0 41.69 0.617731 42.3077 1.37969 42.3077C2.14164 42.3077 2.75937 41.69 2.75937 40.928V33.9062C2.75937 31.2254 3.95777 28.6981 5.9412 26.9706C5.97156 27.0176 6.00402 27.0636 6.04082 27.1076L10.6769 32.6561C10.6836 32.6641 10.6912 32.6708 10.698 32.6786V32.6802V40.9051C10.698 41.6671 11.3157 42.2848 12.0777 42.2848C12.8396 42.2848 13.4574 41.6671 13.4574 40.9051V32.6802C13.4574 28.9009 15.6251 25.4006 19.0032 23.6809C19.036 23.6949 19.069 23.7083 19.1019 23.7219V25.3533C19.1019 27.8042 21.0959 29.798 23.5466 29.798C25.9975 29.798 27.9913 27.8041 27.9913 25.3533V23.7219C28.0243 23.7082 28.0573 23.6948 28.09 23.6809C31.4682 25.4007 33.6359 28.901 33.6359 32.6802V40.9051C33.6359 41.6671 34.2536 42.2848 35.0156 42.2848C35.7775 42.2848 36.3953 41.6671 36.3953 40.9051V32.6802C36.3953 32.1795 36.3639 31.6829 36.3057 31.192C38.0596 30.6857 39.3464 29.0669 39.3464 27.1522V25.7395C42.3869 27.3181 44.3339 30.4881 44.3339 33.9062V40.928C44.3339 41.69 44.9516 42.3077 45.7136 42.3077C46.4755 42.3077 47.0933 41.69 47.0933 40.928V33.9062C47.0933 29.9996 45.1398 26.3447 41.987 24.1246ZM35.1413 7.68549C38.1937 7.68549 40.8553 9.39051 42.2241 11.8981H35.119C34.9824 10.4285 34.5712 9.03759 33.937 7.77701C34.3338 7.71713 34.7359 7.68549 35.1413 7.68549ZM23.5466 21.8467C18.659 21.8467 14.6826 17.8703 14.6826 12.9827C14.6826 12.914 14.6836 12.8457 14.6852 12.7775H24.0568C24.3719 12.7775 24.6773 12.6697 24.9226 12.4721L26.1324 11.4971L26.6527 12.2107C26.9124 12.5669 27.3267 12.7775 27.7675 12.7775H32.4082C32.4097 12.8458 32.4108 12.9141 32.4108 12.9827C32.4107 17.8703 28.4343 21.8467 23.5466 21.8467ZM23.5466 4.11864C27.3949 4.11864 30.6779 6.58404 31.9002 10.0182H28.4689L27.5088 8.7014C27.2864 8.3964 26.9488 8.19579 26.5745 8.1464C26.2005 8.09701 25.8221 8.20315 25.5282 8.44L23.5701 10.0182H15.1931C16.4154 6.58404 19.6983 4.11864 23.5466 4.11864ZM13.1561 7.7772C12.6517 8.78004 12.2882 9.86531 12.0919 11.0071C12.0751 11.0238 12.0576 11.0394 12.0414 11.0572C10.9639 12.2391 8.75788 13.0028 6.42152 13.0028C5.74124 13.0028 5.07706 12.9407 4.43955 12.8198C5.61413 9.81757 8.5386 7.6854 11.9519 7.6854C12.3576 7.68549 12.7594 7.71741 13.1561 7.7772ZM2.75937 5.95187C2.75937 4.19158 4.19149 2.75946 5.95178 2.75946C7.49363 2.75946 8.78354 3.85815 9.08008 5.31372C7.08864 5.86247 5.3254 6.96686 3.96853 8.44966C3.21126 7.84922 2.75937 6.93826 2.75937 5.95187ZM8.79568 26.1013C9.79467 26.4064 10.8544 26.5712 11.9519 26.5712C12.0566 26.5712 12.161 26.5692 12.2653 26.5662C11.8404 27.3461 11.4955 28.1701 11.2384 29.0247L8.79568 26.1013ZM14.8067 23.2873C13.895 23.6347 12.9351 23.8118 11.952 23.8118C7.50595 23.8118 3.88887 20.1947 3.88887 15.7487C3.88887 15.6735 3.89007 15.5987 3.89219 15.524C4.70951 15.6812 5.55728 15.7622 6.42161 15.7622C8.50953 15.7622 10.4638 15.3008 12.0191 14.477C12.4143 17.543 14.0091 20.2381 16.3157 22.0761C15.7803 22.4434 15.2762 22.8485 14.8067 23.2873ZM25.232 25.3534C25.232 26.2827 24.4759 27.0387 23.5466 27.0387C22.6174 27.0387 21.8613 26.2826 21.8613 25.3534V24.4834C22.4117 24.5637 22.9743 24.6061 23.5466 24.6061C24.1189 24.6061 24.6816 24.5637 25.232 24.4834V25.3534ZM35.0489 14.6575H43.1304C43.1788 15.0145 43.2045 15.3786 43.2045 15.7487C43.2045 20.1946 39.5874 23.8118 35.1413 23.8118C34.2534 23.8118 33.3804 23.6674 32.5469 23.3825C32.4757 23.3581 32.4039 23.3416 32.332 23.3293C31.8497 22.8743 31.3301 22.4552 30.7775 22.0761C33.0388 20.2744 34.6153 17.6487 35.0489 14.6575ZM35.6809 28.4924C35.4485 27.8268 35.1634 27.1817 34.827 26.5647C34.9317 26.5678 35.0364 26.5712 35.1414 26.5712C35.6316 26.5712 36.114 26.5378 36.5871 26.4743V27.1522C36.587 27.7586 36.2113 28.2781 35.6809 28.4924Z" fill="#333335"/>
</svg>
