<svg width="159" height="100" viewBox="0 0 159 100" fill="none" xmlns="http://www.w3.org/2000/svg">
<rect x="79" y="16" width="80" height="80" rx="40" fill="#C0F8FF" fill-opacity="0.9"/>
<path d="M99.2419 57.0219C104.976 52.327 108.642 45.1959 108.642 37.2243C108.642 23.1193 97.1666 11.6438 83.0613 11.6438C80.7579 11.6438 78.4858 11.956 76.2848 12.563C71.246 6.83434 63.8664 3.21281 55.6557 3.21281C47.4452 3.21281 40.0656 6.83434 35.0268 12.5623C32.826 11.9553 30.5548 11.6436 28.25 11.6436C28.1407 11.6436 28.0322 11.6464 27.9231 11.6477C26.7719 5.04053 20.9994 0 14.0678 0C6.31105 0.000217405 0 6.31105 0 14.0681C0 18.5486 2.10579 22.676 5.61927 25.3103C3.73741 28.8705 2.66952 32.9247 2.66952 37.2241C2.66952 45.1957 6.3354 52.3266 12.0692 57.0216C4.61725 62.2689 0 70.9077 0 80.142V96.7389C0 98.5399 1.46009 100 3.26108 100C5.06206 100 6.52215 98.5399 6.52215 96.7389V80.142C6.52215 73.8055 9.35472 67.8319 14.0428 63.7488C14.1146 63.8597 14.1913 63.9686 14.2783 64.0725L25.2364 77.187C25.2522 77.206 25.2701 77.2218 25.2862 77.2403V77.2442V96.6848C25.2862 98.4858 26.7463 99.9459 28.5472 99.9459C30.3482 99.9459 31.8083 98.4858 31.8083 96.6848V77.2442C31.8083 68.3113 36.9321 60.0377 44.9167 55.9731C44.9941 56.0061 45.0722 56.0379 45.15 56.0701V59.926C45.15 65.7189 49.8629 70.4316 55.6557 70.4316C61.4487 70.4316 66.1613 65.7187 66.1613 59.926V56.0701C66.2392 56.0377 66.3172 56.0059 66.3946 55.9731C74.3795 60.0379 79.5031 68.3115 79.5031 77.2442V96.6848C79.5031 98.4858 80.9632 99.9459 82.7641 99.9459C84.5651 99.9459 86.0252 98.4858 86.0252 96.6848V77.2442C86.0252 76.0607 85.9511 74.8869 85.8135 73.7266C89.9589 72.5298 93.0006 68.7037 93.0006 64.178V60.8388C100.187 64.5702 104.789 72.0628 104.789 80.142V96.7389C104.789 98.5399 106.249 100 108.05 100C109.851 100 111.311 98.5399 111.311 96.7389V80.142C111.311 70.9082 106.694 62.2694 99.2419 57.0219ZM83.0613 18.1657C90.2761 18.1657 96.5672 22.1957 99.8024 28.1229H83.0085C82.6857 24.6492 81.7136 21.3616 80.2146 18.382C81.1527 18.2405 82.103 18.1657 83.0613 18.1657ZM55.6557 51.6376C44.103 51.6376 34.7044 42.239 34.7044 30.6863C34.7044 30.5241 34.7068 30.3626 34.7105 30.2015H56.8616C57.6062 30.2015 58.3282 29.9467 58.9081 29.4795L61.7674 27.175L62.9972 28.8616C63.6112 29.7036 64.5904 30.2015 65.6322 30.2015H76.6011C76.6048 30.3628 76.6072 30.5243 76.6072 30.6863C76.607 42.239 67.2084 51.6376 55.6557 51.6376ZM55.6557 9.73496C64.7517 9.73496 72.5113 15.5623 75.4004 23.6793H67.2901L65.0208 20.5669C64.4952 19.846 63.6971 19.3719 62.8124 19.2551C61.9285 19.1384 61.0341 19.3893 60.3395 19.9491L55.7111 23.6793H35.911C38.8001 15.5623 46.5597 9.73496 55.6557 9.73496ZM31.0963 18.3825C29.9041 20.7528 29.0449 23.318 28.5809 26.0169C28.5411 26.0562 28.4998 26.0932 28.4616 26.1351C25.9147 28.9288 20.7004 30.7339 15.1781 30.7339C13.5702 30.7339 12.0003 30.5872 10.4935 30.3013C13.2697 23.2052 20.1821 18.1655 28.25 18.1655C29.2088 18.1657 30.1586 18.2412 31.0963 18.3825ZM6.52215 14.0681C6.52215 9.90736 9.90715 6.52237 14.0678 6.52237C17.7122 6.52237 20.7611 9.11927 21.462 12.5597C16.755 13.8567 12.5873 16.4671 9.38016 19.9719C7.59026 18.5527 6.52215 16.3995 6.52215 14.0681ZM20.7898 61.6939C23.151 62.4152 25.656 62.8046 28.25 62.8046C28.4974 62.8046 28.7442 62.7998 28.9907 62.7929C27.9863 64.6362 27.1713 66.5838 26.5634 68.6039L20.7898 61.6939ZM34.9976 55.0426C32.8427 55.8637 30.5739 56.2825 28.2503 56.2825C17.7413 56.2825 9.19188 47.733 9.19188 37.2241C9.19188 37.0465 9.19471 36.8697 9.19971 36.6932C11.1316 37.0647 13.1354 37.256 15.1783 37.256C20.1134 37.256 24.7326 36.1655 28.4087 34.2185C29.3429 41.4652 33.1123 47.8354 38.5644 52.1798C37.2989 53.0481 36.1075 54.0056 34.9976 55.0426ZM59.6392 59.9262C59.6392 62.1228 57.8521 63.9097 55.6557 63.9097C53.4592 63.9097 51.6722 62.1226 51.6722 59.9262V57.87C52.9731 58.0597 54.303 58.1598 55.6557 58.1598C57.0084 58.1598 58.3382 58.0597 59.6392 57.87V59.9262ZM82.8428 34.645H101.944C102.059 35.4888 102.12 36.3495 102.12 37.2241C102.12 47.7328 93.5703 56.2825 83.0613 56.2825C80.9625 56.2825 78.8991 55.9411 76.929 55.2676C76.7607 55.21 76.5909 55.1711 76.4211 55.142C75.2811 54.0665 74.0529 53.076 72.7468 52.1798C78.0917 47.9213 81.818 41.715 82.8428 34.645ZM84.3366 67.3458C83.7872 65.7724 83.1135 64.2477 82.3185 62.7894C82.5659 62.7966 82.8133 62.8046 83.0615 62.8046C84.2201 62.8046 85.3604 62.7257 86.4785 62.5757V64.178C86.4783 65.6113 85.5904 66.8392 84.3366 67.3458Z" fill="#333335"/>
</svg>
