<svg width="60" height="64" viewBox="0 0 60 64" fill="none" xmlns="http://www.w3.org/2000/svg">
<rect y="23" width="41" height="41" rx="20.5" fill="#C0F8FF" fill-opacity="0.9"/>
<path d="M58.5352 15.2874C59.3441 15.2874 60 14.6315 60 13.8226V3.25586C60 2.44688 59.3441 1.79102 58.5352 1.79102H45.7106V1.46484C45.7106 0.655859 45.0548 0 44.2458 0C43.4368 0 42.781 0.655859 42.781 1.46484V3.25586V12.3577H20.0307C14.4997 12.3577 10 16.852 10 22.3763C10 27.9006 14.4997 32.3948 20.0307 32.3948H52.4279C54.9878 32.3948 57.0703 34.4735 57.0703 37.0286C57.0703 39.5837 54.9878 41.6624 52.4279 41.6624C52.4279 41.6624 23.6408 41.6652 23.6034 41.6682C22.9316 38.5772 20.1731 36.2544 16.8806 36.2544C13.0865 36.2544 10 39.3375 10 43.1272C10 46.9169 13.0865 50 16.8805 50C20.173 50 22.9315 47.6772 23.6033 44.5863C23.6407 44.5893 52.4279 44.5921 52.4279 44.5921C56.6032 44.5921 60 41.1991 60 37.0286C60 32.8581 56.6032 29.4651 52.4279 29.4651H20.0307C16.1151 29.4651 12.9297 26.2852 12.9297 22.3763C12.9297 18.4674 16.1151 15.2874 20.0307 15.2874H42.781V21.1926H40.2302C39.4212 21.1926 38.7653 21.8484 38.7653 22.6574C38.7653 23.4664 39.4212 24.1223 40.2302 24.1223H48.3945C49.2035 24.1223 49.8594 23.4664 49.8594 22.6574C49.8594 21.8484 49.2035 21.1926 48.3945 21.1926H45.7107V15.2874H58.5352ZM16.8805 47.0703C14.702 47.0703 12.9297 45.3015 12.9297 43.1272C12.9297 40.9529 14.702 39.1841 16.8805 39.1841C19.059 39.1841 20.8313 40.9529 20.8313 43.1272C20.8313 45.3015 19.059 47.0703 16.8805 47.0703ZM57.0703 4.7207V12.3577H45.7106V4.7207H57.0703Z" fill="#333335"/>
</svg>
