<svg width="62" height="55" viewBox="0 0 62 55" fill="none" xmlns="http://www.w3.org/2000/svg">
<rect width="48" height="48" rx="24" fill="#C0F8FF" fill-opacity="0.9"/>
<path d="M57.9865 31.326V21.0237C57.9865 17.7022 55.2843 15 51.9627 15H20.017C16.6955 15 13.9933 17.7022 13.9933 21.0237V31.3259C11.6679 32.1611 10 34.3874 10 36.9966V48.9763C10 50.0978 10.909 51.0068 12.0305 51.0068H13.9932V52.9695C13.9932 54.091 14.9022 55 16.0237 55C17.1451 55 18.0541 54.091 18.0541 52.9695V51.0068H53.9255V52.9695C53.9255 54.091 54.8345 55 55.9559 55C57.0774 55 57.9864 54.091 57.9864 52.9695V51.0068H59.9492C61.0707 51.0068 61.9797 50.0978 61.9797 48.9763V36.9966C61.9797 34.3874 60.3118 32.1611 57.9865 31.326ZM14.0609 46.9459V43.0203H57.9188V46.9459H14.0609ZM14.0609 38.9594V36.9966C14.0609 35.9144 14.9414 35.0339 16.0237 35.0339H55.9559C57.0383 35.0339 57.9187 35.9144 57.9187 36.9966V38.9594H14.0609ZM41.9459 30.9729H30.0338V27.0473H41.9458V30.9729H41.9459ZM20.017 19.0609H51.9628C53.0451 19.0609 53.9256 19.9414 53.9256 21.0237V30.9729H46.0068V25.0169C46.0068 23.8954 45.0978 22.9864 43.9763 22.9864H28.0033C26.8819 22.9864 25.9729 23.8954 25.9729 25.0169V30.9729H18.0541V21.0237C18.0541 19.9414 18.9346 19.0609 20.017 19.0609Z" fill="#333335"/>
</svg>
