<svg width="24" height="25" viewBox="0 0 24 25" fill="none" xmlns="http://www.w3.org/2000/svg">
<path d="M17.34 6.31449C17.1027 6.31449 16.8707 6.38487 16.6733 6.51673C16.476 6.64859 16.3222 6.836 16.2313 7.05527C16.1405 7.27454 16.1168 7.51582 16.1631 7.7486C16.2094 7.98138 16.3236 8.1952 16.4915 8.36302C16.6593 8.53084 16.8731 8.64513 17.1059 8.69143C17.3387 8.73774 17.5799 8.71397 17.7992 8.62315C18.0185 8.53232 18.2059 8.37852 18.3378 8.18118C18.4696 7.98384 18.54 7.75183 18.54 7.51449C18.54 7.19623 18.4136 6.89101 18.1885 6.66596C17.9635 6.44092 17.6583 6.31449 17.34 6.31449ZM21.94 8.73449C21.9206 7.90479 21.7652 7.08389 21.48 6.30449C21.2257 5.63762 20.83 5.03377 20.32 4.53449C19.8248 4.02192 19.2196 3.62867 18.55 3.38449C17.7727 3.09065 16.9508 2.9317 16.12 2.91449C15.06 2.85449 14.72 2.85449 12 2.85449C9.28 2.85449 8.94 2.85449 7.88 2.91449C7.04915 2.9317 6.22734 3.09065 5.45 3.38449C4.78168 3.63114 4.17693 4.02405 3.68 4.53449C3.16743 5.02967 2.77418 5.63493 2.53 6.30449C2.23616 7.08184 2.07721 7.90364 2.06 8.73449C2 9.79449 2 10.1345 2 12.8545C2 15.5745 2 15.9145 2.06 16.9745C2.07721 17.8053 2.23616 18.6271 2.53 19.4045C2.77418 20.0741 3.16743 20.6793 3.68 21.1745C4.17693 21.6849 4.78168 22.0778 5.45 22.3245C6.22734 22.6183 7.04915 22.7773 7.88 22.7945C8.94 22.8545 9.28 22.8545 12 22.8545C14.72 22.8545 15.06 22.8545 16.12 22.7945C16.9508 22.7773 17.7727 22.6183 18.55 22.3245C19.2196 22.0803 19.8248 21.6871 20.32 21.1745C20.8322 20.6771 21.2283 20.0727 21.48 19.4045C21.7652 18.6251 21.9206 17.8042 21.94 16.9745C21.94 15.9145 22 15.5745 22 12.8545C22 10.1345 22 9.79449 21.94 8.73449ZM20.14 16.8545C20.1327 17.4893 20.0178 18.1182 19.8 18.7145C19.6403 19.1497 19.3839 19.5429 19.05 19.8645C18.7256 20.195 18.3332 20.4509 17.9 20.6145C17.3037 20.8322 16.6748 20.9472 16.04 20.9545C15.04 21.0045 14.67 21.0145 12.04 21.0145C9.41 21.0145 9.04 21.0145 8.04 20.9545C7.38089 20.9668 6.72459 20.8653 6.1 20.6545C5.68578 20.4826 5.31136 20.2273 5 19.9045C4.66809 19.5832 4.41484 19.1897 4.26 18.7545C4.01586 18.1496 3.88044 17.5064 3.86 16.8545C3.86 15.8545 3.8 15.4845 3.8 12.8545C3.8 10.2245 3.8 9.85449 3.86 8.85449C3.86448 8.20555 3.98295 7.56244 4.21 6.95449C4.38605 6.5324 4.65627 6.15615 5 5.85449C5.30381 5.51066 5.67929 5.23759 6.1 5.05449C6.70955 4.83454 7.352 4.71957 8 4.71449C9 4.71449 9.37 4.65449 12 4.65449C14.63 4.65449 15 4.65449 16 4.71449C16.6348 4.72177 17.2637 4.83674 17.86 5.05449C18.3144 5.22314 18.7223 5.49734 19.05 5.85449C19.3777 6.16167 19.6338 6.53722 19.8 6.95449C20.0223 7.56343 20.1373 8.20627 20.14 8.85449C20.19 9.85449 20.2 10.2245 20.2 12.8545C20.2 15.4845 20.19 15.8545 20.14 16.8545ZM12 7.72449C10.9858 7.72647 9.99496 8.02902 9.15265 8.59391C8.31035 9.1588 7.65438 9.96069 7.26763 10.8982C6.88089 11.8358 6.78072 12.867 6.97979 13.8614C7.17886 14.8559 7.66824 15.769 8.38608 16.4855C9.10392 17.2019 10.018 17.6895 11.0129 17.8866C12.0077 18.0838 13.0387 17.9816 13.9755 17.593C14.9123 17.2045 15.7129 16.5469 16.2761 15.7035C16.8394 14.8601 17.14 13.8687 17.14 12.8545C17.1413 12.1796 17.0092 11.5111 16.7512 10.8874C16.4933 10.2638 16.1146 9.6973 15.6369 9.22054C15.1592 8.74378 14.5919 8.36617 13.9678 8.10942C13.3436 7.85267 12.6749 7.72185 12 7.72449ZM12 16.1845C11.3414 16.1845 10.6976 15.9892 10.15 15.6233C9.60234 15.2574 9.17552 14.7373 8.92348 14.1288C8.67144 13.5204 8.6055 12.8508 8.73398 12.2048C8.86247 11.5589 9.17963 10.9655 9.64533 10.4998C10.111 10.0341 10.7044 9.71697 11.3503 9.58848C11.9963 9.45999 12.6659 9.52593 13.2743 9.77797C13.8828 10.03 14.4029 10.4568 14.7688 11.0044C15.1347 11.5521 15.33 12.1959 15.33 12.8545C15.33 13.2918 15.2439 13.7248 15.0765 14.1288C14.9092 14.5328 14.6639 14.8999 14.3547 15.2092C14.0454 15.5184 13.6784 15.7637 13.2743 15.931C12.8703 16.0984 12.4373 16.1845 12 16.1845Z" fill="white"/>
</svg>
