<svg width="24" height="25" viewBox="0 0 24 25" fill="none" xmlns="http://www.w3.org/2000/svg">
<path d="M17.5 9.8534C16.6047 9.85302 15.7233 10.0745 14.9345 10.4979C14.8626 10.3084 14.7346 10.1452 14.5677 10.03C14.4008 9.91492 14.2027 9.85331 14 9.8534H9.99997C9.86863 9.85333 9.73856 9.87914 9.6172 9.92937C9.49584 9.9796 9.38557 10.0533 9.2927 10.1461C9.19982 10.239 9.12617 10.3493 9.07594 10.4706C9.02571 10.592 8.9999 10.7221 8.99997 10.8534V22.8534C8.99989 22.9847 9.02571 23.1148 9.07594 23.2362C9.12616 23.3575 9.19982 23.4678 9.29269 23.5607C9.38557 23.6536 9.49584 23.7272 9.6172 23.7774C9.73856 23.8277 9.86863 23.8535 9.99997 23.8534H14C14.1313 23.8535 14.2614 23.8277 14.3827 23.7774C14.5041 23.7272 14.6144 23.6536 14.7072 23.5607C14.8001 23.4678 14.8738 23.3575 14.924 23.2362C14.9742 23.1148 15 22.9847 15 22.8534V17.3534C15 17.0882 15.1053 16.8338 15.2929 16.6463C15.4804 16.4588 15.7348 16.3534 16 16.3534C16.2652 16.3534 16.5195 16.4588 16.7071 16.6463C16.8946 16.8338 17 17.0882 17 17.3534V22.8534C16.9999 22.9847 17.0257 23.1148 17.0759 23.2362C17.1262 23.3575 17.1998 23.4678 17.2927 23.5607C17.3856 23.6536 17.4958 23.7272 17.6172 23.7774C17.7386 23.8277 17.8686 23.8535 18 23.8534H22C22.1313 23.8535 22.2614 23.8277 22.3827 23.7774C22.5041 23.7272 22.6144 23.6536 22.7072 23.5607C22.8001 23.4678 22.8738 23.3575 22.924 23.2362C22.9742 23.1148 23 22.9847 23 22.8534V15.3534C22.9982 13.8953 22.4181 12.4974 21.3871 11.4663C20.356 10.4353 18.9581 9.85521 17.5 9.8534ZM21 21.8534H19V17.3534C19 16.5578 18.6839 15.7947 18.1213 15.2321C17.5587 14.6695 16.7956 14.3534 16 14.3534C15.2043 14.3534 14.4413 14.6695 13.8786 15.2321C13.316 15.7947 13 16.5578 13 17.3534V21.8534H11V11.8534H13V12.5565C13.0001 12.7637 13.0645 12.9658 13.1844 13.1348C13.3043 13.3038 13.4737 13.4314 13.6692 13.5C13.8647 13.5686 14.0767 13.5748 14.2759 13.5178C14.4751 13.4607 14.6517 13.3432 14.7812 13.1815C15.23 12.6116 15.8456 12.196 16.542 11.9928C17.2384 11.7896 17.9808 11.8089 18.6657 12.0481C19.3506 12.2873 19.9436 12.7344 20.3621 13.327C20.7806 13.9195 21.0036 14.628 21 15.3534V21.8534ZM6.99997 9.8534H2.99997C2.86863 9.85333 2.73856 9.87914 2.6172 9.92937C2.49584 9.9796 2.38557 10.0533 2.2927 10.1461C2.19982 10.239 2.12617 10.3493 2.07594 10.4706C2.02571 10.592 1.9999 10.7221 1.99997 10.8534V22.8534C1.99989 22.9847 2.02571 23.1148 2.07594 23.2362C2.12616 23.3575 2.19982 23.4678 2.29269 23.5607C2.38557 23.6536 2.49584 23.7272 2.6172 23.7774C2.73856 23.8277 2.86863 23.8535 2.99997 23.8534H6.99997C7.13131 23.8535 7.26138 23.8277 7.38274 23.7774C7.5041 23.7272 7.61437 23.6536 7.70725 23.5607C7.80012 23.4678 7.87378 23.3575 7.92401 23.2362C7.97423 23.1148 8.00005 22.9847 7.99997 22.8534V10.8534C8.00005 10.7221 7.97423 10.592 7.924 10.4706C7.87378 10.3493 7.80012 10.239 7.70724 10.1461C7.61437 10.0533 7.5041 9.9796 7.38274 9.92937C7.26138 9.87914 7.13131 9.85333 6.99997 9.8534ZM5.99997 21.8534H3.99997V11.8534H5.99997V21.8534ZM5.01462 2.3964C4.57698 2.3702 4.13859 2.4333 3.7261 2.58185C3.31361 2.73039 2.93564 2.96129 2.61519 3.26049C2.29473 3.5597 2.03849 3.92096 1.86203 4.3223C1.68557 4.72365 1.59259 5.15669 1.58875 5.59509C1.5849 6.0335 1.67027 6.46811 1.83966 6.87248C2.00904 7.27686 2.25891 7.64256 2.57407 7.94734C2.88922 8.25212 3.26308 8.48962 3.6729 8.64538C4.08272 8.80114 4.51994 8.87192 4.95797 8.8534H4.98629C5.42509 8.87947 5.86459 8.81578 6.27795 8.66625C6.6913 8.51672 7.06983 8.28448 7.39039 7.98371C7.71096 7.68295 7.96683 7.31998 8.14238 6.91698C8.31793 6.51399 8.40946 6.07943 8.41139 5.63986C8.41332 5.2003 8.3256 4.76495 8.15359 4.36043C7.98159 3.95591 7.7289 3.59071 7.41099 3.28715C7.09307 2.98358 6.7166 2.74803 6.30457 2.59487C5.89255 2.44172 5.45362 2.37419 5.01461 2.3964H5.01462ZM4.9863 6.8534H4.95797C4.78504 6.8744 4.60961 6.85818 4.44346 6.80583C4.27731 6.75348 4.12427 6.66621 3.99461 6.54987C3.86495 6.43352 3.76167 6.2908 3.69168 6.13128C3.6217 5.97175 3.58664 5.7991 3.58884 5.62491C3.58884 4.87881 4.14841 4.39639 5.01462 4.39639C5.18932 4.3731 5.36698 4.38752 5.53564 4.43868C5.70429 4.48983 5.86003 4.57653 5.99236 4.69294C6.12468 4.80936 6.23053 4.95277 6.30276 5.11353C6.37499 5.2743 6.41193 5.44867 6.4111 5.62491C6.4111 6.371 5.85153 6.8534 4.9863 6.8534Z" fill="white"/>
</svg>
