<svg width="55" height="55" viewBox="0 0 55 55" fill="none" xmlns="http://www.w3.org/2000/svg">
<rect x="5" y="3" width="40" height="40" rx="20" fill="#C0F8FF" fill-opacity="0.9"/>
<path d="M50.4356 34.0527C51.2026 33.1966 51.6699 32.0665 51.6699 30.8301C51.6699 28.1649 49.5011 25.9961 46.8359 25.9961H37.4537C38.3829 23.1763 38.7793 19.4348 38.7793 17.831V16.2207C38.7793 12.6672 35.8875 9.77539 32.334 9.77539H30.7227C29.9836 9.77539 29.3391 10.2781 29.1597 10.9957L28.282 14.5073C27.0521 19.4251 23.1473 24.851 19.1061 25.8371C18.3981 24.0453 16.6504 22.7734 14.6094 22.7734H4.94141C4.05195 22.7734 3.33008 23.4953 3.33008 24.3848V53.3887C3.33008 54.2781 4.05195 55 4.94141 55H14.6094C16.5312 55 18.194 53.8731 18.9729 52.2446L24.5094 54.0901C26.3194 54.6938 28.2058 55 30.1146 55H43.6133C46.2784 55 48.4473 52.8312 48.4473 50.166C48.4473 49.5376 48.327 48.936 48.1078 48.385C50.1574 47.8253 51.6699 45.9465 51.6699 43.7207C51.6699 42.4843 51.2026 41.3542 50.4356 40.498C51.2026 39.6419 51.6699 38.5118 51.6699 37.2754C51.6699 36.039 51.2026 34.9089 50.4356 34.0527ZM16.2207 50.166C16.2207 51.0544 15.4978 51.7773 14.6094 51.7773H6.55273V25.9961H14.6094C15.4978 25.9961 16.2207 26.719 16.2207 27.6074V50.166ZM43.6133 35.6641H46.8359C47.7243 35.6641 48.4473 36.387 48.4473 37.2754C48.4473 38.1638 47.7243 38.8867 46.8359 38.8867H43.6133C42.7238 38.8867 42.002 39.6086 42.002 40.498C42.002 41.3875 42.7238 42.1094 43.6133 42.1094H46.8359C47.7243 42.1094 48.4473 42.8323 48.4473 43.7207C48.4473 44.6091 47.7243 45.332 46.8359 45.332H43.6133C42.7238 45.332 42.002 46.0539 42.002 46.9434C42.002 47.8328 42.7238 48.5547 43.6133 48.5547C44.5017 48.5547 45.2246 49.2776 45.2246 50.166C45.2246 51.0544 44.5017 51.7773 43.6133 51.7773H30.1146C28.5527 51.7773 27.0091 51.5271 25.5277 51.0329L19.4434 49.0048V29.0662C21.971 28.586 24.4449 26.9855 26.6782 24.3654C28.8589 21.8066 30.6271 18.4143 31.408 15.2894L31.9806 12.998H32.334C34.1107 12.998 35.5566 14.4439 35.5566 16.2207V17.831C35.5566 19.9944 34.8799 24.1441 34.0141 25.9961H30.7227C29.8332 25.9961 29.1113 26.718 29.1113 27.6074C29.1113 28.4969 29.8332 29.2188 30.7227 29.2188H46.8359C47.7243 29.2188 48.4473 29.9417 48.4473 30.8301C48.4473 31.7185 47.7243 32.4414 46.8359 32.4414H43.6133C42.7238 32.4414 42.002 33.1633 42.002 34.0527C42.002 34.9422 42.7238 35.6641 43.6133 35.6641Z" fill="#333335"/>
<path d="M11.3867 48.5547C12.2766 48.5547 12.998 47.8333 12.998 46.9434C12.998 46.0534 12.2766 45.332 11.3867 45.332C10.4968 45.332 9.77539 46.0534 9.77539 46.9434C9.77539 47.8333 10.4968 48.5547 11.3867 48.5547Z" fill="#333335"/>
<path d="M33.9453 0C33.0554 0 32.334 0.721445 32.334 1.61133V4.94141C32.334 5.83129 33.0554 6.55273 33.9453 6.55273C34.8352 6.55273 35.5566 5.83129 35.5566 4.94141V1.61133C35.5566 0.721445 34.8352 0 33.9453 0Z" fill="#333335"/>
<path d="M27.109 7.10568L24.8303 4.82694C24.2011 4.19766 23.1808 4.19766 22.5515 4.82694C21.9222 5.45622 21.9222 6.4764 22.5515 7.10568L24.8303 9.38442C25.4594 10.0136 26.4798 10.0137 27.109 9.38442C27.7383 8.75514 27.7383 7.73496 27.109 7.10568Z" fill="#333335"/>
<path d="M45.3391 4.82694C44.71 4.19766 43.6897 4.19766 43.0604 4.82694L40.7817 7.10557C40.1524 7.73485 40.1524 8.75504 40.7817 9.38431C41.4108 10.0136 42.4311 10.0137 43.0604 9.38442L45.3391 7.10568C45.9684 6.4764 45.9684 5.45622 45.3391 4.82694Z" fill="#333335"/>
</svg>
