<svg width="111" height="116" viewBox="0 0 111 116" fill="none" xmlns="http://www.w3.org/2000/svg">
<rect x="31" width="80" height="80" rx="40" fill="#C0F8FF" fill-opacity="0.9"/>
<path d="M62.3878 34.9868C63.9203 34.9868 65.3884 33.6394 65.3175 32.0571C65.2464 30.4698 64.0302 29.1274 62.3878 29.1274C60.8554 29.1274 59.3873 30.4749 59.4582 32.0571C59.5293 33.6444 60.7453 34.9868 62.3878 34.9868Z" fill="#333335"/>
<path d="M85.7887 50.0121H68.5098C69.7002 48.4521 71.0318 46.6264 72.2986 44.716C76.0637 39.0393 77.8938 34.7184 77.8938 31.5062C77.8939 22.9561 70.9379 16 62.3879 16C53.8379 16 46.8816 22.9561 46.8816 31.5062C46.8816 35.0488 49.1117 39.9562 53.6996 46.509C56.8943 51.0721 60.043 54.7096 60.1752 54.8623C60.7316 55.5033 61.5387 55.8715 62.3877 55.8715H85.7887C90.3939 55.8715 94.1406 59.6182 94.1406 64.2232C94.1406 68.8285 90.3939 72.5752 85.7887 72.5752H68.2375C64.6939 66.1311 57.8385 61.7537 49.9793 61.7537C42.1197 61.7537 35.2635 66.1307 31.7201 72.5754C31.7129 72.5754 31.7057 72.5754 31.6982 72.5754H21.7123C9.74023 72.5752 0 82.3152 0 94.2877C0 106.26 9.74023 116 21.7123 116H49.9793C50.8283 116 51.6353 115.632 52.1918 114.991C52.3785 114.776 56.8166 109.648 61.3252 103.209C67.7014 94.1018 70.801 87.3523 70.801 82.5752C70.801 81.1578 70.658 79.7732 70.3869 78.4346H85.7887C93.6248 78.4346 100 72.0594 100 64.2232C100 56.3871 93.6248 50.0121 85.7887 50.0121ZM62.3824 48.351C57.8285 42.6475 52.741 34.957 52.741 31.5061C52.741 26.1867 57.0686 21.8592 62.3879 21.8592C67.7072 21.8592 72.0348 26.1867 72.0348 31.5061C72.0346 34.4529 68.2229 41.0588 62.3824 48.351ZM21.7123 110.141C12.9711 110.141 5.85938 103.029 5.85938 94.2875C5.85938 85.5461 12.9711 78.4346 21.7123 78.4346H29.5713C29.3 79.7732 29.1578 81.1574 29.1578 82.5752C29.1578 87.351 32.2127 94.0479 38.4967 103.048C40.3723 105.735 42.2352 108.187 43.7762 110.141H21.7123V110.141ZM49.9838 108.513C48.3209 106.473 45.8035 103.278 43.301 99.6941C36.0934 89.3709 35.0172 84.5373 35.0172 82.5752C35.0172 74.325 41.7291 67.6131 49.9793 67.6131C58.2295 67.6131 64.9414 74.325 64.9414 82.5752C64.9416 88.2941 56.5146 100.518 49.9838 108.513Z" fill="#333335"/>
<path d="M49.9795 80.4292C48.4471 80.4292 46.9789 81.7767 47.0498 83.3589C47.1209 84.9462 48.3371 86.2886 49.9795 86.2886C51.5119 86.2886 52.9801 84.9411 52.9092 83.3589C52.8381 81.7716 51.6219 80.4292 49.9795 80.4292Z" fill="#333335"/>
</svg>
