<svg width="53" height="55" viewBox="0 0 53 55" fill="none" xmlns="http://www.w3.org/2000/svg">
<rect x="14.6983" width="37.931" height="37.931" rx="18.9655" fill="#C0F8FF" fill-opacity="0.9"/>
<path d="M29.5805 16.5886C30.307 16.5886 31.0032 15.9497 30.9695 15.1995C30.9358 14.4469 30.3592 13.8104 29.5805 13.8104C28.8539 13.8104 28.1578 14.4493 28.1914 15.1995C28.2251 15.9521 28.8017 16.5886 29.5805 16.5886Z" fill="#333335"/>
<path d="M40.6757 23.7126H32.4831C33.0475 22.973 33.6789 22.1073 34.2795 21.2015C36.0647 18.51 36.9324 16.4613 36.9324 14.9383C36.9325 10.8843 33.6343 7.58618 29.5805 7.58618C25.5266 7.58618 22.2284 10.8843 22.2284 14.9383C22.2284 16.618 23.2857 18.9447 25.461 22.0516C26.9758 24.2152 28.4686 25.9399 28.5313 26.0123C28.7952 26.3162 29.1778 26.4908 29.5804 26.4908H40.6757C42.8592 26.4908 44.6356 28.2672 44.6356 30.4506C44.6356 32.6342 42.8592 34.4106 40.6757 34.4106H32.354C30.6739 31.3552 27.4234 29.2798 23.6971 29.2798C19.9706 29.2798 16.7198 31.355 15.0397 34.4107C15.0363 34.4107 15.0329 34.4107 15.0293 34.4107H10.2946C4.61821 34.4106 0 39.0287 0 44.7053C0 50.3818 4.61821 55 10.2946 55H23.6971C24.0996 55 24.4823 54.8254 24.7461 54.5215C24.8346 54.4194 26.9389 51.9884 29.0766 48.9351C32.0998 44.6172 33.5694 41.417 33.5694 39.152C33.5694 38.48 33.5016 37.8235 33.3731 37.1888H40.6757C44.3911 37.1888 47.4138 34.1661 47.4138 30.4506C47.4138 26.7352 44.3911 23.7126 40.6757 23.7126ZM29.5779 22.925C27.4187 20.2208 25.0065 16.5744 25.0065 14.9382C25.0065 12.4161 27.0584 10.3642 29.5805 10.3642C32.1026 10.3642 34.1544 12.4161 34.1544 14.9382C34.1543 16.3354 32.347 19.4675 29.5779 22.925ZM10.2946 52.2218C6.15009 52.2218 2.77815 48.8499 2.77815 44.7053C2.77815 40.5606 6.15009 37.1888 10.2946 37.1888H14.0209C13.8922 37.8235 13.8248 38.4798 13.8248 39.152C13.8248 41.4164 15.2733 44.5916 18.2527 48.8591C19.142 50.1328 20.0253 51.2956 20.7559 52.2219H10.2946V52.2218ZM23.6992 51.45C22.9108 50.483 21.7172 48.9681 20.5306 47.2687C17.1132 42.3741 16.603 40.0823 16.603 39.152C16.603 35.2403 19.7853 32.0579 23.6971 32.0579C27.6088 32.0579 30.7912 35.2403 30.7912 39.152C30.7913 41.8636 26.7957 47.6595 23.6992 51.45Z" fill="#333335"/>
<path d="M23.6972 38.1345C22.9706 38.1345 22.2745 38.7734 22.3081 39.5236C22.3418 40.2762 22.9184 40.9127 23.6972 40.9127C24.4237 40.9127 25.1199 40.2738 25.0862 39.5236C25.0525 38.771 24.4759 38.1345 23.6972 38.1345Z" fill="#333335"/>
</svg>
