<svg width="49" height="58" viewBox="0 0 49 58" fill="none" xmlns="http://www.w3.org/2000/svg">
<rect y="18" width="40" height="40" rx="20" fill="#C0F8FF" fill-opacity="0.9"/>
<path d="M47.8643 17.686L44.062 13.756L44.8279 8.34295C44.9451 7.51503 44.3846 6.74333 43.5608 6.59908L38.1754 5.65501L35.6119 0.82371C35.22 0.0852809 34.3125 -0.209429 33.5619 0.157822L28.6506 2.55849L23.7381 0.157822C22.9869 -0.209429 22.0802 0.0854876 21.6882 0.824123L19.1257 5.65501L13.7397 6.59908C12.9161 6.74333 12.3554 7.51503 12.4726 8.34295L13.2383 13.756L9.43599 17.686C8.85463 18.287 8.85463 19.2406 9.4362 19.8416L13.2383 23.7712L12.4726 29.1872C12.3556 30.0149 12.9161 30.7866 13.7397 30.9309L18.0502 31.6864V48.45C18.0502 48.9871 18.3283 49.486 18.7853 49.7683C19.0341 49.9223 19.3168 50 19.6002 50C19.837 50 20.0745 49.9459 20.2934 49.8363L28.6508 45.6591L37.0071 49.8363C37.4874 50.0765 38.0582 50.0508 38.5152 49.7683C38.9721 49.4858 39.2503 48.9869 39.2503 48.4498V31.6866L43.561 30.9306C44.3846 30.7862 44.9451 30.0147 44.8281 29.1868L44.0622 23.7708L47.8643 19.8414C48.4454 19.2408 48.4454 18.287 47.8643 17.686ZM29.3438 42.5397C28.9077 42.3216 28.3942 42.3214 27.9577 42.5397L21.1502 45.9423V35.6904L21.6884 36.705C22.0802 37.4438 22.9879 37.7383 23.7385 37.3709L28.6508 34.9685L33.5617 37.3709C33.7808 37.4779 34.0131 37.5288 34.2419 37.5288C34.7978 37.5288 35.3343 37.2283 35.6121 36.7052L36.1502 35.6915V45.9423L29.3438 42.5397ZM41.3071 22.16C40.9745 22.5037 40.8193 22.9815 40.8863 23.455L41.5482 28.1363L36.8938 28.9524C36.4231 29.0349 36.0165 29.3302 35.7923 29.7524L33.5766 33.9271L29.3318 31.8507C29.1169 31.7457 28.8838 31.693 28.6506 31.693C28.4175 31.693 28.1844 31.7455 27.9697 31.8507L23.7239 33.9271L21.509 29.7526C21.285 29.3302 20.8784 29.0349 20.4074 28.9524L15.752 28.1363L16.4138 23.4548C16.4807 22.9815 16.3255 22.5035 15.993 22.16L12.7067 18.7636L15.9932 15.3668C16.3255 15.0231 16.4807 14.5453 16.4138 14.072L15.752 9.39366L20.4074 8.57752C20.8784 8.49506 21.285 8.19952 21.5092 7.77709L23.7241 3.60134L27.9701 5.6763C28.3995 5.88628 28.9019 5.88628 29.3314 5.6763L33.5762 3.60134L35.7923 7.7773C36.0163 8.19952 36.4228 8.49485 36.8938 8.57752L41.5482 9.39345L40.8863 14.0718C40.8193 14.5453 40.9745 15.0231 41.3068 15.3668L44.5933 18.7636L41.3071 22.16Z" fill="#333335"/>
<path d="M28.6506 8.16479C22.8054 8.16479 18.05 12.9194 18.05 18.7638C18.05 24.6095 22.8054 29.3651 28.6506 29.3651C34.495 29.3651 39.2499 24.6095 39.2499 18.7638C39.2499 12.9194 34.495 8.16479 28.6506 8.16479ZM28.6506 26.2651C24.5148 26.2651 21.15 22.9001 21.15 18.7638C21.15 14.6288 24.5148 11.2648 28.6506 11.2648C32.7857 11.2648 36.1498 14.6288 36.1498 18.7638C36.1498 22.9001 32.7857 26.2651 28.6506 26.2651Z" fill="#333335"/>
<path d="M31.8104 14.8316L27.2317 19.4093L25.4892 17.6689C24.8837 17.0638 23.9022 17.0644 23.2971 17.6702C22.6922 18.2759 22.6928 19.2572 23.2985 19.8621L26.1367 22.6972C26.4393 22.9996 26.8357 23.1506 27.2321 23.1506C27.6287 23.1506 28.0255 22.9994 28.328 22.6968L34.0021 17.0239C34.6077 16.4188 34.6077 15.4373 34.0023 14.8318C33.3972 14.2265 32.4157 14.2262 31.8104 14.8316Z" fill="#333335"/>
</svg>
