<svg width="108" height="110" viewBox="0 0 108 110" fill="none" xmlns="http://www.w3.org/2000/svg">
<rect x="28" y="30" width="80" height="80" rx="40" fill="#C0F8FF" fill-opacity="0.9"/>
<path d="M77.7285 35.3721L70.1239 27.5121L71.6557 16.6859C71.8901 15.0301 70.7691 13.4867 69.1216 13.1982L58.3508 11.31L53.2238 1.64742C52.4401 0.170562 50.6251 -0.418858 49.1238 0.315644L39.3013 5.11698L29.4762 0.315644C27.9737 -0.418858 26.1604 0.170975 25.3763 1.64825L20.2513 11.31L9.47934 13.1982C7.83219 13.4867 6.7108 15.0301 6.94517 16.6859L8.47658 27.5121L0.871989 35.3721C-0.290732 36.5741 -0.290732 38.4812 0.872402 39.6832L8.47658 47.5424L6.94517 58.3744C6.71122 60.0298 7.83219 61.5732 9.47934 61.8617L18.1003 63.3729V96.9C18.1003 97.9742 18.6567 98.972 19.5706 99.5367C20.0682 99.8446 20.6337 100 21.2004 100C21.6741 100 22.149 99.8917 22.5867 99.6726L39.3017 91.3182L56.0142 99.6726C56.9748 100.153 58.1164 100.102 59.0303 99.5367C59.9442 98.9716 60.5006 97.9738 60.5006 96.8996V63.3733L69.122 61.8613C70.7691 61.5724 71.8901 60.0294 71.6562 58.3735L70.1243 47.5416L77.7285 39.6828C78.8908 38.4816 78.8908 36.5741 77.7285 35.3721ZM40.6876 85.0793C39.8155 84.6432 38.7883 84.6428 37.9154 85.0793L24.3004 91.8845V71.3809L25.3767 73.41C26.1604 74.8876 27.9758 75.4766 29.4771 74.7417L39.3017 69.9371L49.1234 74.7417C49.5616 74.9558 50.0262 75.0575 50.4837 75.0575C51.5956 75.0575 52.6686 74.4565 53.2242 73.4104L54.3005 71.3829V91.8845L40.6876 85.0793ZM64.6141 44.32C63.9491 45.0074 63.6386 45.9631 63.7726 46.91L65.0965 56.2725L55.7877 57.9048C54.8461 58.0697 54.0331 58.6604 53.5846 59.5048L49.1532 67.8543L40.6636 63.7015C40.2338 63.4915 39.7675 63.3861 39.3013 63.3861C38.835 63.3861 38.3688 63.4911 37.9393 63.7015L29.4477 67.8543L25.018 59.5053C24.5699 58.6604 23.7569 58.0697 22.8149 57.9048L13.504 56.2725L14.8275 46.9096C14.9614 45.9631 14.651 45.007 13.986 44.32L7.41348 37.5272L13.9864 30.7336C14.651 30.0462 14.9614 29.0906 14.8275 28.144L13.504 18.7873L22.8149 17.155C23.7569 16.9901 24.5699 16.399 25.0184 15.5542L29.4481 7.20268L37.9402 11.3526C38.7991 11.7726 39.8039 11.7726 40.6628 11.3526L49.1524 7.20268L53.5846 15.5546C54.0327 16.399 54.8457 16.9897 55.7877 17.155L65.0965 18.7869L63.7726 28.1436C63.6386 29.0906 63.949 30.0462 64.6137 30.7336L71.1866 37.5272L64.6141 44.32Z" fill="#333335"/>
<path d="M39.3013 16.3296C27.6109 16.3296 18.1 25.8388 18.1 37.5276C18.1 49.2189 27.6109 58.7302 39.3013 58.7302C50.9901 58.7302 60.4998 49.2189 60.4998 37.5276C60.4998 25.8388 50.9901 16.3296 39.3013 16.3296ZM39.3013 52.5302C31.0296 52.5302 24.3 45.8002 24.3 37.5276C24.3 29.2576 31.0296 22.5297 39.3013 22.5297C47.5714 22.5297 54.2997 29.2576 54.2997 37.5276C54.2997 45.8002 47.5714 52.5302 39.3013 52.5302Z" fill="#333335"/>
<path d="M45.6208 29.6629L36.4633 38.8184L32.9785 35.3376C31.7674 34.1274 29.8044 34.1286 28.5942 35.3401C27.3843 36.5516 27.3856 38.5141 28.5971 39.724L34.2734 45.3942C34.8786 45.9989 35.6714 46.301 36.4641 46.301C37.2573 46.301 38.0509 45.9985 38.6561 45.3933L50.0043 34.0476C51.2154 32.8374 51.2154 30.8744 50.0047 29.6633C48.7944 28.4527 46.8315 28.4523 45.6208 29.6629Z" fill="#333335"/>
</svg>
