<svg width="63" height="55" viewBox="0 0 63 55" fill="none" xmlns="http://www.w3.org/2000/svg">
<rect x="23" y="14" width="40" height="40" rx="20" fill="#C0F8FF" fill-opacity="0.9"/>
<path d="M4.75873 32.7924C6.07465 32.7924 7.34404 33.3449 8.24131 34.308L12.9035 39.313C13.5061 37.3757 15.3156 35.965 17.4487 35.965H24.7766C25.8025 35.965 26.7918 35.5917 27.562 34.9139C31.7044 31.2685 37.9309 31.2365 42.1126 34.8131C42.975 33.5922 44.3959 32.7925 46.0011 32.7925H52.5576C53.4336 32.7925 54.1439 33.5027 54.1439 34.3788V53.4137C54.1439 54.2897 53.4337 55 52.5576 55H46.0011C44.5766 55 43.2972 54.3699 42.4243 53.3748L41.485 53.6388C38.2718 54.542 34.9503 54.9999 31.6126 54.9999H17.4488C13.9724 54.9999 10.6517 53.3395 8.56583 50.5584L0.950268 40.4045C0.950161 40.4043 0.950058 40.4041 0.949844 40.4038C0.328426 39.5752 0 38.5888 0 37.551C0 34.9271 2.13482 32.7924 4.75873 32.7924ZM44.4149 50.2411C44.4149 51.1157 45.1264 51.8273 46.0011 51.8273H50.9714V35.9649H46.0011C45.1265 35.9649 44.4149 36.6764 44.4149 37.5511V50.2411ZM3.48808 38.5007C3.48808 38.5008 3.48819 38.5008 3.48829 38.5009L11.1037 48.655C12.5937 50.6415 14.9656 51.8274 17.4488 51.8274H31.6123C34.6597 51.8274 37.6925 51.4093 40.6262 50.5847L41.2465 50.4103C41.2445 50.354 41.2422 50.2979 41.2422 50.2412V38.2682L40.1368 37.2954C37.1497 34.6669 32.6448 34.6667 29.6575 37.2954C28.3077 38.4831 26.5744 39.1372 24.7764 39.1372H17.4484C16.5738 39.1372 15.8622 39.8488 15.8622 40.7235C15.8622 41.5981 16.5737 42.3098 17.4484 42.3098H28.7223C29.5983 42.3098 30.3085 43.0199 30.3085 43.896C30.3085 44.7722 29.5984 45.4823 28.7223 45.4823H16.3855C15.0696 45.4823 13.8004 44.9301 12.9034 43.9671L5.91991 36.4704C5.61623 36.1444 5.20383 35.9649 4.75873 35.9649C3.88409 35.9649 3.17245 36.6764 3.17245 37.5511C3.17245 37.897 3.28161 38.2253 3.48808 38.5007Z" fill="#333335"/>
<path d="M27.025 0C18.5972 0 11.7408 6.85636 11.7408 15.2842C11.7408 23.7121 18.5972 30.5684 27.025 30.5684C35.4529 30.5684 42.3092 23.7121 42.3092 15.2842C42.3092 6.85636 35.4529 0 27.025 0ZM27.025 27.2276C20.4393 27.2276 15.0816 21.87 15.0816 15.2842C15.0816 8.69877 20.4393 3.34081 27.025 3.34081C33.6108 3.34081 38.9684 8.69877 38.9684 15.2842C38.9684 21.87 33.6108 27.2276 27.025 27.2276Z" fill="#333335"/>
<path d="M28.348 15.3025V8.89658C28.348 8.1813 27.7684 7.60168 27.0534 7.60168C26.3382 7.60168 25.7585 8.1813 25.7585 8.89658V15.7162C25.7585 15.7366 25.7635 15.7557 25.7645 15.776C25.7475 16.1281 25.8688 16.4856 26.1377 16.7546L30.9602 21.5767C31.466 22.0825 32.2858 22.0825 32.7912 21.5767C33.2967 21.0709 33.297 20.2511 32.7912 19.7456L28.348 15.3025Z" fill="#333335"/>
</svg>
