<svg width="54" height="62" viewBox="0 0 54 62" fill="none" xmlns="http://www.w3.org/2000/svg">
<rect x="5" y="23" width="39" height="39" rx="19.5" fill="#C0F8FF" fill-opacity="0.9"/>
<path d="M51.9895 0H46.3687C45.5021 0 44.7996 0.702538 44.7996 1.5691V19.1192H41.8328V17.3135C41.8328 14.9372 40.0646 12.967 37.775 12.6472L36.6105 8.06601C36.4337 7.37048 35.8074 6.88343 35.0897 6.88343H9.53542C8.81771 6.88343 8.19154 7.37038 8.01465 8.06601L6.85006 12.6472C4.56043 12.967 2.79216 14.9371 2.79216 17.3135V19.1193H1.5691C0.702538 19.1193 0 19.8218 0 20.6884C0 21.5549 0.702538 22.2575 1.5691 22.2575H2.79227V28.6642C2.79227 31.6909 5.25471 34.1532 8.28129 34.1532H14.5995C17.0612 34.1532 19.2373 32.4957 19.8914 30.1225L20.4769 27.9981C20.7021 27.1808 21.4227 26.6149 22.27 26.5899C23.1634 26.5649 23.9465 27.1468 24.1789 28.0078L24.7422 30.0945C25.3872 32.4842 27.5665 34.1532 30.0417 34.1532H36.3438C39.3705 34.1532 41.8328 31.6909 41.8328 28.6642V22.2575H44.7996V39.1891H36.5649V38.7064C36.5649 37.8398 35.8624 37.1373 34.9958 37.1373H23.6961C22.8296 37.1373 22.127 37.8398 22.127 38.7064V48.4309C22.127 49.2975 22.8296 50 23.6961 50H34.9958C35.8624 50 36.5649 49.2975 36.5649 48.4309V47.9481H46.6022C50.438 47.9481 53.5586 44.8275 53.5586 40.9917V1.5691C53.5586 0.702538 52.8561 0 51.9895 0ZM33.8694 10.0216L34.525 12.6006H24.6686C24.4651 12.6006 24.2636 12.6401 24.0752 12.717L22.3125 13.437L20.5498 12.717C20.3614 12.6401 20.1599 12.6006 19.9564 12.6006H10.1L10.7556 10.0216H33.8694ZM38.6945 28.6641C38.6945 29.9604 37.64 31.0149 36.3437 31.0149H30.0416C28.9815 31.0149 28.0481 30.3002 27.7719 29.2767L27.2086 27.1899C26.6093 24.9695 24.6164 23.4508 22.3299 23.4508C22.2794 23.4508 22.2283 23.4516 22.1776 23.453C19.9442 23.5189 18.045 25.0103 17.4514 27.1643L16.8659 29.2887C16.5858 30.3052 15.6539 31.015 14.5995 31.015H8.28129C6.98501 31.015 5.93047 29.9605 5.93047 28.6642V17.3135C5.93047 16.4452 6.63677 15.7388 7.50511 15.7388H19.6484L21.7192 16.5847C22.0995 16.7399 22.5255 16.7399 22.9058 16.5847L24.9766 15.7388H37.1199C37.9881 15.7388 38.6945 16.4452 38.6945 17.3135V28.6641ZM47.9378 3.1382H50.4204V19.1192H47.9378V3.1382ZM33.4267 46.8617H25.2652V40.2753H33.4267V46.8617ZM46.6022 44.8098H36.5649V42.3273H44.8772C46.5648 42.3273 47.9378 40.9543 47.9378 39.2666V22.2574H50.4204V40.9916C50.4204 43.097 48.7076 44.8098 46.6022 44.8098Z" fill="#333335"/>
</svg>
