<svg width="33" height="33" viewBox="0 0 33 33" fill="none" xmlns="http://www.w3.org/2000/svg">
<path d="M29.8512 27.8987L24.7499 22.8387C26.7301 20.3697 27.689 17.236 27.4295 14.0817C27.1701 10.9275 25.712 7.99251 23.355 5.88032C20.9981 3.76813 17.9214 2.63926 14.7577 2.72583C11.594 2.8124 8.58367 4.10783 6.34575 6.34575C4.10783 8.58367 2.8124 11.594 2.72583 14.7577C2.63926 17.9214 3.76813 20.9981 5.88032 23.355C7.99251 25.712 10.9275 27.1701 14.0817 27.4295C17.236 27.689 20.3697 26.7301 22.8387 24.7499L27.8987 29.8099C28.0265 29.9388 28.1786 30.0411 28.3461 30.1109C28.5137 30.1807 28.6934 30.2167 28.8749 30.2167C29.0564 30.2167 29.2362 30.1807 29.4037 30.1109C29.5713 30.0411 29.7234 29.9388 29.8512 29.8099C30.099 29.5535 30.2375 29.2109 30.2375 28.8543C30.2375 28.4977 30.099 28.1551 29.8512 27.8987ZM15.1249 24.7499C13.2213 24.7499 11.3604 24.1854 9.77757 23.1278C8.19474 22.0702 6.96108 20.567 6.23259 18.8083C5.5041 17.0495 5.31349 15.1143 5.68487 13.2472C6.05625 11.3801 6.97295 9.66511 8.31903 8.31903C9.66511 6.97295 11.3801 6.05625 13.2472 5.68487C15.1143 5.31349 17.0495 5.5041 18.8083 6.23259C20.567 6.96108 22.0702 8.19474 23.1278 9.77757C24.1854 11.3604 24.7499 13.2213 24.7499 15.1249C24.7499 17.6776 23.7359 20.1258 21.9308 21.9308C20.1258 23.7359 17.6776 24.7499 15.1249 24.7499Z" fill="white"/>
</svg>
