<svg width="17" height="17" viewBox="0 0 17 17" fill="none" xmlns="http://www.w3.org/2000/svg">
<g clip-path="url(#clip0)">
<path d="M16.4393 6.63258C16.3319 6.30029 16.0372 6.06429 15.6885 6.03287L10.9522 5.6028L9.0793 1.21916C8.9412 0.897899 8.6267 0.689941 8.27727 0.689941C7.92783 0.689941 7.61333 0.897899 7.47523 1.21991L5.60236 5.6028L0.865282 6.03287C0.517225 6.06504 0.223255 6.30029 0.115207 6.63258C0.00715937 6.96486 0.106944 7.32931 0.37024 7.55906L3.95034 10.6988L2.89465 15.3491C2.81741 15.6911 2.95012 16.0445 3.23382 16.2496C3.38632 16.3598 3.56473 16.4159 3.74464 16.4159C3.89976 16.4159 4.05363 16.374 4.19173 16.2914L8.27727 13.8496L12.3613 16.2914C12.6602 16.4712 13.0369 16.4548 13.32 16.2496C13.6038 16.0439 13.7364 15.6903 13.6591 15.3491L12.6034 10.6988L16.1835 7.55968C16.4468 7.32931 16.5474 6.96548 16.4393 6.63258Z" fill="#FFC107"/>
</g>
<defs>
<clipPath id="clip0">
<rect width="16.4098" height="16.4098" fill="white" transform="translate(0.0722656 0.337891)"/>
</clipPath>
</defs>
</svg>
