<svg width="18" height="17" viewBox="0 0 18 17" fill="none" xmlns="http://www.w3.org/2000/svg">
<g clip-path="url(#clip0)">
<path d="M17.0292 6.63258C16.9217 6.30029 16.627 6.06429 16.2783 6.03287L11.542 5.6028L9.66914 1.21916C9.53105 0.897899 9.21655 0.689941 8.86711 0.689941C8.51768 0.689941 8.20317 0.897899 8.06508 1.21991L6.19221 5.6028L1.45513 6.03287C1.10707 6.06504 0.813099 6.30029 0.705051 6.63258C0.597003 6.96486 0.696788 7.32931 0.960084 7.55906L4.54019 10.6988L3.4845 15.3491C3.40725 15.6911 3.53996 16.0445 3.82367 16.2496C3.97616 16.3598 4.15457 16.4159 4.33448 16.4159C4.48961 16.4159 4.64348 16.374 4.78157 16.2914L8.86711 13.8496L12.9511 16.2914C13.25 16.4712 13.6267 16.4548 13.9098 16.2496C14.1936 16.0439 14.3262 15.6903 14.249 15.3491L13.1933 10.6988L16.7734 7.55968C17.0367 7.32931 17.1372 6.96548 17.0292 6.63258Z" fill="#FFC107"/>
<mask id="mask0" mask-type="alpha" maskUnits="userSpaceOnUse" x="0" y="0" width="18" height="17">
<g clip-path="url(#clip1)">
<path d="M17.0292 6.63258C16.9217 6.30029 16.627 6.06429 16.2783 6.03287L11.542 5.6028L9.66914 1.21916C9.53105 0.897899 9.21655 0.689941 8.86711 0.689941C8.51768 0.689941 8.20317 0.897899 8.06508 1.21991L6.19221 5.6028L1.45513 6.03287C1.10707 6.06504 0.813099 6.30029 0.705051 6.63258C0.597003 6.96486 0.696788 7.32931 0.960084 7.55906L4.54019 10.6988L3.4845 15.3491C3.40725 15.6911 3.53996 16.0445 3.82367 16.2496C3.97616 16.3598 4.15457 16.4159 4.33448 16.4159C4.48961 16.4159 4.64348 16.374 4.78157 16.2914L8.86711 13.8496L12.9511 16.2914C13.25 16.4712 13.6267 16.4548 13.9098 16.2496C14.1936 16.0439 14.3262 15.6903 14.249 15.3491L13.1933 10.6988L16.7734 7.55968C17.0367 7.32931 17.1372 6.96548 17.0292 6.63258Z" fill="#FFC107"/>
</g>
</mask>
<g mask="url(#mask0)">
<rect x="8.86719" y="-1.15381" width="8.95082" height="18.6475" fill="#FFF9E6"/>
</g>
</g>
<defs>
<clipPath id="clip0">
<rect width="16.4098" height="16.4098" fill="white" transform="translate(0.662109 0.337891)"/>
</clipPath>
<clipPath id="clip1">
<rect width="16.4098" height="16.4098" fill="white" transform="translate(0.662109 0.337891)"/>
</clipPath>
</defs>
</svg>
