<svg width="46" height="46" viewBox="0 0 46 46" fill="none" xmlns="http://www.w3.org/2000/svg">
<g clip-path="url(#clip0)">
<rect width="40" height="40" rx="20" fill="#C0F8FF" fill-opacity="0.9"/>
<path d="M45.112 17.412C44.876 16.554 44.073 15.944 43.182 15.944C38.423 15.944 33.664 15.944 28.905 15.944C27.545 11.759 26.185 7.57403 24.826 3.38903C24.723 3.07604 24.623 2.76304 24.52 2.45104C24.518 2.44604 24.515 2.44204 24.514 2.43604C24.365 1.95204 24.029 1.52804 23.591 1.26604C23.582 1.26004 23.573 1.25304 23.564 1.24804C23.48 1.19904 23.391 1.16104 23.301 1.12504C23.264 1.11004 23.229 1.09404 23.191 1.08204C23.169 1.07404 23.147 1.06103 23.124 1.05503C23.079 1.04303 23.036 1.04204 22.992 1.03304C22.922 1.01804 22.851 1.00404 22.779 0.997035C22.725 0.992035 22.673 0.992035 22.619 0.991035C22.539 0.990035 22.459 0.991035 22.378 1.00004C22.333 1.00504 22.29 1.01403 22.246 1.02203C22.185 1.03303 22.124 1.03604 22.062 1.05304C22.029 1.06204 22 1.07904 21.968 1.09004C21.958 1.09304 21.948 1.09804 21.938 1.10204C21.336 1.31604 20.859 1.83003 20.672 2.43503C20.67 2.44104 20.667 2.44603 20.665 2.45203C19.203 6.95004 17.743 11.448 16.28 15.945C11.849 15.945 7.419 15.945 2.988 15.945C2.659 15.945 2.331 15.945 2.002 15.945C1.112 15.945 0.310002 16.555 0.0730015 17.413C-0.182998 18.344 0.257002 19.137 0.992002 19.672C4.789 22.43 8.585 25.188 12.382 27.946C11.003 32.191 9.624 36.436 8.243 40.681C8.142 40.993 8.04 41.306 7.938 41.619C7.423 43.203 9.444 44.918 10.877 43.877C14.783 41.039 18.688 38.202 22.594 35.364C26.234 38.01 29.874 40.653 33.514 43.299C33.78 43.491 34.045 43.684 34.311 43.877C35.745 44.918 37.764 43.203 37.249 41.619C35.769 37.06 34.286 32.503 32.805 27.944C36.335 25.38 39.866 22.815 43.397 20.25C43.663 20.057 43.928 19.864 44.194 19.67C44.929 19.136 45.368 18.343 45.112 17.412ZM23.602 31.177C23.081 30.798 22.105 30.798 21.582 31.177C18.942 33.096 16.302 35.014 13.662 36.932C14.558 34.174 15.454 31.417 16.35 28.66C16.452 28.348 16.553 28.035 16.655 27.722C16.951 26.812 16.444 25.978 15.736 25.464C13.204 23.624 10.672 21.785 8.139 19.945C11.007 19.945 13.875 19.945 16.743 19.945C17.072 19.945 17.4 19.945 17.729 19.945C18.65 19.945 19.38 19.329 19.658 18.477C20.636 15.468 21.614 12.457 22.592 9.44804C23.467 12.145 24.343 14.841 25.22 17.537C25.322 17.85 25.422 18.162 25.525 18.475C25.802 19.327 26.533 19.943 27.454 19.943C30.651 19.943 33.848 19.943 37.044 19.943C34.778 21.589 32.513 23.235 30.247 24.881C29.98 25.074 29.715 25.268 29.448 25.461C28.74 25.977 28.232 26.809 28.529 27.719C29.526 30.79 30.524 33.86 31.522 36.93C29.148 35.205 26.773 33.481 24.4 31.756C24.134 31.563 23.869 31.37 23.602 31.177Z" fill="#333335"/>
</g>
<defs>
<clipPath id="clip0">
<rect width="45.186" height="45.186" fill="white"/>
</clipPath>
</defs>
</svg>
