<svg width="68" height="65" viewBox="0 0 68 65" fill="none" xmlns="http://www.w3.org/2000/svg">
<rect width="38" height="38" rx="19" fill="#C0F8FF" fill-opacity="0.9"/>
<path d="M57.453 43.9525L57.5285 44.0092C58.2381 44.5416 59.2451 44.3979 59.7775 43.6883L66.9019 34.1929C67.4343 33.4833 67.2907 32.4763 66.581 31.9438L25.2911 0.9641C24.5814 0.431659 23.5744 0.575318 23.042 1.28496L15.9176 10.7804C15.3852 11.49 15.5288 12.497 16.2385 13.0294C17.7517 14.1647 18.059 16.3194 16.9237 17.8325L15.1406 20.209C14.0053 21.7222 11.8506 22.0295 10.3376 20.8942C9.62792 20.3618 8.62094 20.5054 8.0885 21.2151L0.964125 30.7105C0.431684 31.4201 0.575344 32.4271 1.28498 32.9595L42.575 63.9393C43.2846 64.4717 44.2916 64.3281 44.824 63.6184L51.9484 54.123C52.4808 53.4134 52.3372 52.4064 51.6275 51.874L51.5521 51.8173C50.0389 50.682 49.7316 48.5273 50.8668 47.0142L52.6499 44.6378C53.7851 43.1245 55.9398 42.8172 57.453 43.9525ZM9.81213 24.2712C12.5557 25.4292 15.8444 24.6244 17.7106 22.1372L19.4936 19.7607C21.3598 17.2735 21.2128 13.891 19.3338 11.5806L24.6478 4.49811L32.0114 10.023L11.8617 36.8786L4.49814 31.3537L9.81213 24.2712ZM48.5185 53.341L43.2181 60.4053L14.4316 38.8069L34.5813 11.9512L63.3679 33.5496L58.0675 40.614C55.3063 39.4003 51.9663 40.1953 50.0798 42.7096L48.2968 45.0861C46.4104 47.6002 46.5811 51.0293 48.5185 53.341Z" fill="#333335"/>
<path d="M51.95 30.6935L37.6573 19.9697C36.9476 19.4373 35.9407 19.5809 35.4082 20.2906C34.8758 21.0002 35.0194 22.0072 35.7291 22.5396L50.0218 33.2634C50.7315 33.7959 51.7384 33.6522 52.2709 32.9426C52.8033 32.2329 52.6597 31.226 51.95 30.6935Z" fill="#333335"/>
<path d="M31.4829 28.1991L41.2452 35.5237C41.9548 36.0561 42.9618 35.9125 43.4942 35.2028C44.0267 34.4932 43.883 33.4862 43.1734 32.9538L33.4111 25.6291C32.7014 25.0967 31.6944 25.2404 31.162 25.95C30.6296 26.6596 30.7732 27.6666 31.4829 28.1991Z" fill="#333335"/>
<path d="M37.2767 46.22L24.9187 36.9479C24.2091 36.4154 23.2021 36.5591 22.6697 37.2687C22.1372 37.9784 22.2809 38.9853 22.9905 39.5178L35.3485 48.7899C36.0581 49.3223 37.0651 49.1787 37.5976 48.4691C38.13 47.7594 37.9863 46.7524 37.2767 46.22Z" fill="#333335"/>
<path d="M27.2366 33.8585L36.999 41.1831C37.7086 41.7156 38.7156 41.5719 39.248 40.8623C39.7805 40.1526 39.6368 39.1457 38.9272 38.6132L29.1648 31.2886C28.4552 30.7561 27.4482 30.8998 26.9158 31.6094C26.3833 32.3191 26.527 33.326 27.2366 33.8585Z" fill="#333335"/>
</svg>
