<svg width="62" height="60" viewBox="0 0 62 60" fill="none" xmlns="http://www.w3.org/2000/svg">
<rect x="14" y="10" width="48" height="48" rx="24" fill="#C0F8FF" fill-opacity="0.9"/>
<path d="M47.2262 23.7727L42.3817 19.0519C42.0533 18.7321 41.6132 18.553 41.1548 18.553H35.168V10.8691C35.168 9.89836 34.3809 9.11133 33.4102 9.11133H30.4132V1.75781C30.4132 0.787031 29.6262 0 28.6554 0H19.0451C18.0743 0 17.2873 0.787031 17.2873 1.75781V9.11133H6.60234C6.14402 9.11133 5.70387 9.29027 5.37551 9.6102L0.530976 14.331C0.191484 14.6618 0 15.1158 0 15.5899C0 16.0639 0.191484 16.5179 0.530976 16.8489L5.37551 21.5698C5.70375 21.8896 6.14402 22.0686 6.60234 22.0686H12.5892V27.9947H10.1471C9.68883 27.9947 9.24855 28.1736 8.92031 28.4936L4.07578 33.2143C3.73629 33.5452 3.5448 33.9991 3.5448 34.4733C3.5448 34.9474 3.73629 35.4013 4.07578 35.7322L8.92031 40.4531C9.24855 40.7729 9.68883 40.952 10.1471 40.952H17.2873V56.4844H16.3118C15.341 56.4844 14.554 57.2714 14.554 58.2422C14.554 59.213 15.341 60 16.3118 60H31.3886C32.3593 60 33.1464 59.213 33.1464 58.2422C33.1464 57.2714 32.3593 56.4844 31.3886 56.4844H30.4132L30.4416 31.5104H41.1548C41.6132 31.5104 42.0534 31.3315 42.3817 31.0116L47.2262 26.2907C47.5657 25.9597 47.7572 25.5057 47.7572 25.0317C47.7573 24.5576 47.5658 24.1036 47.2262 23.7727ZM20.803 3.51562H26.8977V9.11133H20.803V3.51562ZM4.27664 15.5899L7.31719 12.627H31.6523V18.553H7.31719L4.27664 15.5899ZM7.82156 34.4734L10.8621 31.5104H14.3471H26.8977V37.4365H10.8621L7.82156 34.4734ZM20.803 56.4844V40.9521H26.8977V56.4844H20.803ZM40.4401 27.9948H16.105V22.0688H40.4401L43.4807 25.0317L40.4401 27.9948Z" fill="#333335"/>
</svg>
