<svg width="24" height="25" viewBox="0 0 24 25" fill="none" xmlns="http://www.w3.org/2000/svg">
<path d="M22.9912 4.8047C22.9913 4.62807 22.9446 4.45456 22.8558 4.30184C22.7671 4.14913 22.6394 4.02266 22.4859 3.93533C22.3324 3.84799 22.1584 3.80291 21.9818 3.80466C21.8052 3.80642 21.6322 3.85495 21.4804 3.94532C20.8951 4.2937 20.265 4.5605 19.6074 4.73832C18.6684 3.93255 17.4708 3.49162 16.2334 3.49613C14.876 3.49769 13.5723 4.02672 12.5976 4.97151C11.623 5.9163 11.0536 7.20289 11.0098 8.55961C8.33378 8.13287 5.90843 6.73613 4.19625 4.63575C4.09308 4.51058 3.96133 4.41206 3.81211 4.34849C3.66288 4.28493 3.50056 4.25818 3.33883 4.2705C3.17719 4.28381 3.02122 4.33629 2.88442 4.42341C2.74762 4.51053 2.63409 4.62966 2.55367 4.7705C2.1412 5.49031 1.9043 6.29726 1.86222 7.1258C1.82014 7.95435 1.97406 8.78115 2.31148 9.53905L2.30953 9.541C2.15788 9.6344 2.03272 9.76515 1.94603 9.92075C1.85935 10.0763 1.81403 10.2516 1.81441 10.4297C1.81257 10.5766 1.82139 10.7235 1.84078 10.8691C1.94292 12.1274 2.50056 13.3052 3.40914 14.1816C3.3475 14.2991 3.30988 14.4276 3.29848 14.5597C3.28708 14.6918 3.30212 14.8249 3.34273 14.9512C3.73884 16.1853 4.58123 17.2272 5.70504 17.873C4.56328 18.3145 3.33046 18.4685 2.11519 18.3213C1.89026 18.2931 1.66242 18.3421 1.46904 18.4604C1.27566 18.5787 1.12822 18.7592 1.0509 18.9723C0.973592 19.1854 0.970999 19.4184 1.04355 19.6332C1.1161 19.848 1.25949 20.0317 1.45019 20.1543C3.54028 21.5004 5.97387 22.2162 8.45996 22.2158C11.2792 22.2475 14.0299 21.3466 16.2842 19.6533C18.5385 17.9599 20.1699 15.569 20.9248 12.8525C21.2778 11.6691 21.4581 10.441 21.46 9.20606C21.46 9.14063 21.46 9.07325 21.459 9.00587C21.9811 8.4428 22.3855 7.78117 22.6486 7.05976C22.9117 6.33836 23.0282 5.57169 22.9912 4.8047ZM19.6845 8.01661C19.5194 8.21195 19.4358 8.46341 19.4511 8.71876C19.4609 8.88376 19.4599 9.04976 19.4599 9.20606C19.4579 10.2496 19.3049 11.2874 19.0058 12.2871C18.3893 14.5985 17.015 16.6362 15.1029 18.0737C13.1908 19.5113 10.8516 20.2656 8.45996 20.2158C7.60084 20.2161 6.74468 20.1151 5.90918 19.915C6.97459 19.5717 7.97077 19.0424 8.85156 18.3516C9.01378 18.2238 9.13251 18.049 9.19145 17.8512C9.25038 17.6533 9.24664 17.442 9.18073 17.2463C9.11483 17.0506 8.98999 16.8802 8.82334 16.7583C8.65669 16.6363 8.4564 16.569 8.24996 16.5654C7.41879 16.5525 6.62509 16.2175 6.03609 15.6309C6.18551 15.6025 6.33395 15.5674 6.48141 15.5254C6.69742 15.4639 6.88645 15.3315 7.01807 15.1495C7.14969 14.9676 7.21623 14.7466 7.20698 14.5222C7.19773 14.2978 7.11324 14.083 6.96709 13.9125C6.82095 13.7419 6.62167 13.6255 6.40133 13.582C5.91887 13.4868 5.46487 13.2815 5.07464 12.9822C4.68441 12.6829 4.36845 12.2977 4.15133 11.8564C4.33206 11.8811 4.51394 11.8964 4.69625 11.9023C4.91283 11.9056 5.12484 11.8399 5.30162 11.7148C5.47841 11.5896 5.6108 11.4114 5.67965 11.2061C5.74563 10.9988 5.74223 10.7757 5.66998 10.5706C5.59772 10.3655 5.46055 10.1895 5.27926 10.0693C4.83941 9.77631 4.4791 9.37876 4.23061 8.91229C3.98213 8.44583 3.85322 7.92501 3.85543 7.3965C3.85543 7.3301 3.85738 7.26369 3.86129 7.19826C6.10255 9.28851 9.00961 10.5207 12.0703 10.6777C12.2248 10.6838 12.3786 10.6547 12.5202 10.5926C12.6618 10.5306 12.7875 10.4371 12.8877 10.3193C12.9869 10.2005 13.0571 10.0602 13.0928 9.90951C13.1286 9.75886 13.1289 9.60197 13.0937 9.45119C13.0365 9.21255 13.0073 8.96806 13.0068 8.72267C13.0077 7.8672 13.3479 7.04704 13.9528 6.44213C14.5577 5.83723 15.3779 5.497 16.2334 5.4961C16.6735 5.49492 17.1091 5.585 17.5127 5.76064C17.9162 5.93629 18.279 6.1937 18.5781 6.51661C18.6934 6.64069 18.8386 6.7332 18.9998 6.78534C19.161 6.83748 19.3328 6.84752 19.499 6.8145C19.9097 6.73455 20.3146 6.62689 20.7109 6.49224C20.4406 7.04521 20.0952 7.55818 19.6845 8.01661Z" fill="white"/>
</svg>
