<svg width="60" height="54" viewBox="0 0 60 54" fill="none" xmlns="http://www.w3.org/2000/svg">
<rect x="8" width="48" height="48" rx="24" fill="#C0F8FF" fill-opacity="0.9"/>
<path d="M39.283 20.3594C38.2452 20.3365 37.4107 21.1614 37.4107 22.1808V23.328L34.0279 21.404L35.5467 18.733C36.736 16.641 33.571 14.8369 32.3799 16.9321L27.7798 25.0222C26.5787 27.1338 29.7679 28.8953 30.9462 26.8226L32.227 24.5708L37.4107 27.5184V32.02C37.4107 33.3521 36.3263 34.4365 34.9942 34.4365H26.4262C26.18 29.4011 22.0065 25.3806 16.9112 25.3806H6.21002C4.06174 25.3806 2.31308 27.1293 2.31308 29.2771V31.8598C2.31308 32.9552 2.59872 33.9847 3.09769 34.8797C1.27487 35.6862 0 37.5123 0 39.6326V41.6797C0 44.2171 1.80725 46.6804 5.62592 46.6804C5.62592 50.7018 8.73962 53.4109 12.1843 53.4109H47.0435C50.4739 53.4109 53.6009 50.7165 53.6009 46.6804H54.9994C57.7698 46.6804 60 44.4378 60 41.6797C60 30.0036 50.657 20.6812 39.283 20.3594ZM54.9994 43.0375H5.00061C4.25262 43.0375 3.64288 42.4277 3.64288 41.6797V39.6326C3.64288 38.7766 4.33868 38.0794 5.1947 38.0794H34.9942C38.335 38.0794 41.0536 35.3608 41.0536 32.02V24.1543C45.5827 24.7722 49.7031 27.1338 52.532 30.6966H46.0249C45.0192 30.6966 44.2035 31.5128 44.2035 32.5181C44.2035 36.9245 47.7892 40.5106 52.1947 40.5106H56.3182C56.3759 41.3891 56.5599 43.0375 54.9994 43.0375ZM47.0435 49.7684H12.1843C10.6906 49.7684 9.2688 48.6318 9.2688 46.6804H49.958C49.958 48.6185 48.5472 49.7684 47.0435 49.7684ZM8.53271 34.4365C7.11182 34.4365 5.95596 33.2807 5.95596 31.8603V29.2771C5.95596 29.1375 6.0704 29.0235 6.21002 29.0235H16.9112C19.9969 29.0235 22.5357 31.4121 22.7774 34.4365H8.53271ZM54.7664 34.3395C55.118 35.1035 55.4338 35.9522 55.6952 36.8677H52.1947C50.4474 36.8677 48.9368 35.8309 48.2469 34.3395H54.7664Z" fill="#333335"/>
</svg>
